<svg version="1.1" id="Layer_1" xmlns="http://www.w3.org/2000/svg" xmlns:xlink="http://www.w3.org/1999/xlink" x="0px" y="0px"
	 width="100%" viewBox="0 0 1024 1024" enable-background="new 0 0 1024 1024" xml:space="preserve">
<path fill="#FEFEFE" opacity="1.000000" stroke="none" 
	d="
M684.000000,1025.000000 
	C456.000000,1025.000000 228.500000,1025.000000 1.000000,1025.000000 
	C1.000000,683.666687 1.000000,342.333344 1.000000,1.000000 
	C342.333344,1.000000 683.666687,1.000000 1025.000000,1.000000 
	C1025.000000,342.333344 1025.000000,683.666687 1025.000000,1025.000000 
	C911.500000,1025.000000 798.000000,1025.000000 684.000000,1025.000000 
M334.878448,873.281128 
	C334.878448,873.281128 334.762482,873.140564 334.865997,873.725159 
	C335.222839,873.882690 335.579681,874.040222 335.935120,874.083191 
	C335.935120,874.083191 335.825684,874.116760 336.152222,874.663513 
	C337.085297,875.143860 338.018402,875.624207 338.973175,876.025757 
	C338.973175,876.025757 338.896027,876.052856 339.350372,876.565308 
	C340.193390,876.807007 341.036438,877.048706 341.912842,877.146973 
	C341.912842,877.146973 341.766632,877.164124 341.797211,877.777832 
	C342.183899,877.901550 342.570557,878.025269 342.964111,878.057678 
	C342.964111,878.057678 342.873566,878.071472 343.334686,878.615967 
	C349.368835,880.310852 355.307800,882.752625 361.458069,883.536682 
	C372.429535,884.935242 383.288574,883.976929 393.040833,878.064941 
	C393.040833,878.064941 393.043060,878.172913 393.746002,878.053833 
	C395.528473,877.051025 397.310974,876.048157 399.023285,875.011414 
	C399.023285,875.011414 399.040222,875.087524 399.622223,874.920715 
	C400.176819,874.364929 400.731445,873.809143 401.201477,873.158997 
	C401.201477,873.158997 401.156525,873.277466 401.777771,873.180237 
	C401.935303,872.840576 402.092804,872.500916 402.102234,872.181030 
	C402.102234,872.181030 402.173065,872.312622 402.813477,872.354004 
	C403.269745,871.919067 403.726013,871.484131 404.814240,870.782898 
	C406.760712,869.127869 408.707153,867.472778 410.375671,866.729858 
	C410.375671,871.306274 410.375671,875.882751 410.375671,880.287598 
	C421.739136,880.287598 432.296051,880.287598 442.739624,880.287598 
	C442.739624,820.666382 442.739624,761.439392 442.739624,701.958191 
	C431.852051,701.958191 421.220398,701.945312 410.589081,702.000366 
	C410.111603,702.002808 409.637360,702.621216 409.008179,703.884888 
	C409.008179,723.933838 409.008179,743.982727 409.008179,764.940857 
	C401.954529,757.533081 394.583801,751.952820 385.336670,750.498840 
	C378.610168,749.441101 371.593140,749.717163 364.740936,750.074768 
	C348.141541,750.941406 333.926880,756.802307 323.527435,771.303406 
	C322.982483,772.185669 322.437561,773.067871 321.972717,773.970154 
	C321.972717,773.970154 321.944214,773.892639 321.398956,774.284729 
	C320.829590,775.468262 320.260223,776.651794 319.818359,777.913208 
	C319.818359,777.913208 319.853333,777.767944 319.268219,777.862000 
	C319.128876,778.226990 318.989563,778.592041 318.945587,778.958984 
	C318.945587,778.958984 318.926575,778.865540 318.424347,779.230469 
	C318.222565,779.808655 318.020782,780.386780 317.935455,780.963074 
	C317.935455,780.963074 317.910858,780.849182 317.393097,781.201477 
	C317.210846,781.791687 317.028595,782.381958 316.946320,782.972046 
	C316.946320,782.972046 316.927826,782.873718 316.387390,783.336365 
	C314.704071,788.539673 313.020752,793.742981 311.076019,799.468384 
	C311.095062,799.662048 311.114075,799.855774 310.971741,800.743347 
	C310.762177,802.143860 310.552612,803.544434 310.101685,805.482849 
	C310.127075,805.677734 310.152496,805.872681 310.019012,806.897461 
	C309.872742,808.891174 309.464783,810.906311 309.625916,812.874878 
	C310.294861,821.047607 311.135590,829.206299 311.765228,838.143188 
	C312.111908,839.211121 312.560913,840.257690 312.789703,841.350281 
	C315.598236,854.763611 322.805298,865.218262 334.306854,873.300110 
	C334.306854,873.300110 334.724243,873.378174 334.878448,873.281128 
M730.043396,253.981262 
	C730.043396,253.981262 730.137512,253.981110 730.049316,253.374176 
	C729.714539,252.881989 729.379761,252.389801 729.031189,251.981827 
	C729.031189,251.981827 729.116516,251.984604 729.030762,251.387833 
	C728.697266,250.899002 728.363770,250.410172 728.001404,249.983978 
	C728.001404,249.983978 728.069153,249.971024 727.953979,249.410721 
	C727.621887,248.948517 727.289734,248.486313 726.798706,247.359741 
	C720.145935,236.842484 710.997437,228.948151 700.257263,222.970001 
	C646.580688,193.092972 592.878723,163.260406 539.046814,133.664963 
	C533.491211,130.610672 527.014709,129.231430 520.167419,126.853043 
	C507.690186,124.779945 495.513824,125.367592 483.981873,130.961716 
	C483.981873,130.961716 483.977020,130.882416 483.230896,130.952438 
	C479.167328,132.992706 475.103790,135.032974 470.353027,137.205170 
	C449.768616,148.723907 429.170929,160.219040 408.602844,171.766876 
	C377.746613,189.090942 346.692749,206.077805 316.133850,223.912201 
	C290.305603,238.985748 279.469879,262.649811 280.019745,292.961823 
	C280.047729,296.623138 280.075684,300.284424 279.950165,304.787079 
	C280.000214,306.207489 280.050293,307.627869 280.011261,309.975128 
	C280.043274,328.964722 280.075256,347.954346 279.954254,367.713165 
	C280.005127,368.492188 280.056000,369.271240 280.017303,370.862854 
	C280.047241,372.223633 280.077179,373.584381 279.953888,375.713623 
	C280.005096,376.491852 280.056305,377.270081 280.019196,378.770264 
	C280.049652,379.495636 280.080109,380.221039 279.955902,381.860870 
	C280.007568,385.258270 280.059235,388.655640 280.020721,392.938202 
	C280.051727,395.605682 280.082733,398.273132 279.953796,401.871796 
	C280.006378,407.265503 280.058929,412.659210 280.023102,418.910553 
	C280.053589,420.920532 280.084076,422.930481 279.955322,425.706543 
	C280.005524,426.483704 280.055725,427.260895 280.034210,428.499115 
	C280.034210,428.499115 280.105408,428.960266 279.950592,429.887054 
	C280.004181,434.608154 280.057800,439.329254 280.021973,444.771545 
	C280.051666,445.496338 280.081360,446.221130 279.955231,447.864777 
	C280.007294,451.594238 280.059326,455.323700 280.020386,459.910797 
	C280.050323,461.921356 280.080292,463.931885 279.955994,466.866608 
	C279.568909,495.769165 291.855896,517.257874 317.121063,531.554688 
	C368.934418,560.874146 420.779480,590.143799 472.302002,619.968628 
	C498.734192,635.269348 524.289734,634.263184 550.169861,619.222595 
	C583.671509,599.752625 617.280212,580.466675 650.852539,561.118408 
	C668.860291,550.740295 687.142334,540.810486 704.839966,529.929138 
	C724.793823,517.660522 735.878052,499.455933 738.013855,475.026459 
	C738.075562,438.197052 738.193176,401.367615 738.180603,364.538239 
	C738.171143,336.710724 737.995361,308.883240 738.030273,280.218842 
	C737.567932,277.455231 737.105591,274.691620 736.557861,271.289429 
	C736.063721,270.150818 735.569641,269.012207 735.044006,267.976013 
	C735.044006,267.976013 735.149902,267.992432 735.140930,267.173096 
	C733.777344,263.414825 732.413818,259.656586 731.036072,255.982544 
	C731.036072,255.982544 731.121460,255.984787 731.049194,255.369995 
	C730.718506,254.876038 730.387817,254.382095 730.043396,253.981262 
M754.934692,879.832947 
	C755.276428,879.957153 755.618164,880.081360 756.894592,880.339539 
	C768.607971,880.316528 780.321289,880.293457 792.721252,880.268494 
	C792.757568,879.847778 792.793823,879.427002 792.659058,878.298340 
	C791.396851,874.886963 790.134644,871.475525 788.885620,867.319763 
	C787.050903,862.520996 785.216187,857.722290 783.201599,852.164062 
	C781.827332,848.730713 780.453064,845.297302 779.051941,841.968811 
	C779.051941,841.968811 779.159851,841.977234 779.069336,841.180664 
	C778.820557,840.229858 778.628357,839.259949 778.314636,838.331055 
	C769.923645,813.487732 761.567688,788.632385 753.097595,763.816101 
	C749.218140,752.449768 745.110168,741.161499 741.112915,729.967041 
	C741.112915,729.967041 741.237366,729.931641 741.167969,729.133606 
	C740.203430,725.972839 739.288635,722.795898 738.262756,719.655151 
	C736.721130,714.935364 736.429810,708.345154 733.154602,706.050659 
	C729.636230,703.585754 723.285339,705.044922 718.168823,705.004822 
	C707.561218,704.921814 696.952515,704.979797 686.412415,704.979797 
	C683.349304,713.955688 680.457458,722.429565 677.103760,731.429382 
	C675.113647,737.302002 673.123596,743.174683 670.877075,749.740601 
	C665.072449,766.474060 659.267761,783.207520 653.049011,800.491028 
	C647.658325,816.239258 642.307373,832.001282 636.861877,847.730530 
	C633.698425,856.868225 630.382996,865.953308 626.881470,875.724304 
	C626.379761,877.181702 625.878052,878.639038 625.277954,880.382141 
	C636.698792,880.382141 647.600098,880.411072 658.500488,880.329773 
	C659.418457,880.322876 660.330933,879.577637 661.212219,879.076538 
	C661.212219,879.076538 661.110229,879.099121 661.766541,878.779236 
	C665.790283,866.863342 669.814087,854.947449 674.207947,842.500244 
	C674.816589,842.301941 675.425293,842.103638 676.953064,842.013245 
	C681.296570,841.981628 685.640015,841.950073 690.854614,842.069641 
	C692.913452,842.019348 694.972290,841.969055 697.893616,842.019226 
	C699.917786,841.986511 701.942017,841.953857 704.870178,842.072571 
	C707.923767,842.021484 710.977295,841.970398 714.958008,842.017578 
	C720.626709,841.983948 726.295471,841.950317 732.798950,842.067566 
	C734.207947,842.015991 735.617004,841.964417 737.499390,841.998901 
	C737.499390,841.998901 737.973511,841.916931 738.652100,842.063904 
	C739.109680,842.014648 739.567261,841.965393 740.498169,841.996582 
	C740.498169,841.996582 740.969177,841.903748 741.492859,842.094910 
	C741.952087,842.405884 742.411316,842.716797 742.920349,843.813477 
	C746.329468,854.189575 749.738586,864.565735 753.093262,875.408691 
	C753.147644,875.766724 753.352783,875.979065 753.845276,876.744080 
	C754.209839,877.521851 754.574402,878.299683 754.750244,879.086121 
	C754.750244,879.086121 754.726135,879.273438 754.934692,879.832947 
M211.504242,808.579529 
	C211.559448,808.421448 211.614670,808.263367 211.849075,808.169556 
	C211.849075,808.169556 211.978806,808.030273 212.919403,808.026794 
	C234.951050,808.026794 256.982697,808.026794 278.947998,808.026794 
	C278.947998,798.073975 278.947998,788.678894 278.947998,779.030273 
	C256.488647,779.030273 234.254303,779.030273 211.815674,778.832703 
	C211.815674,778.832703 211.579407,778.990662 211.333954,778.077271 
	C211.335083,764.062256 211.336212,750.047180 211.723557,736.083557 
	C211.723557,736.083557 212.021362,735.832336 212.953079,735.907349 
	C237.827484,735.907349 262.701904,735.907349 287.647522,735.907349 
	C287.647522,725.375793 287.647522,715.470520 287.647522,705.084290 
	C285.809326,705.084290 284.188538,705.084167 282.567749,705.084229 
	C254.292221,705.085632 226.016693,705.087097 197.741165,705.088501 
	C191.420746,705.088806 185.098267,705.010010 178.782150,705.175171 
	C177.833496,705.200012 176.914658,706.365601 175.900818,707.937378 
	C175.929703,764.959778 175.958603,821.982117 175.913986,879.867859 
	C177.418030,880.193298 178.921570,880.800110 180.426193,880.802795 
	C214.399155,880.863647 248.372223,880.859924 282.345276,880.856995 
	C283.283813,880.856934 284.222321,880.732849 285.231476,880.661682 
	C285.231476,870.412170 285.231476,860.505371 285.231476,850.249084 
	C282.645020,850.249084 280.341553,850.248962 278.038116,850.249023 
	C257.554352,850.249084 237.070587,850.261658 216.586884,850.227905 
	C214.779419,850.224976 212.972443,849.921143 211.075775,849.853394 
	C211.075775,849.853394 211.189941,849.918579 211.251526,848.996826 
	C211.224533,835.649536 211.197540,822.302307 211.504242,808.579529 
M474.004059,753.866089 
	C474.034546,756.230286 474.065063,758.594482 473.940948,761.880188 
	C473.991852,765.932129 474.042755,769.984009 473.995239,774.963745 
	C474.025360,781.963501 474.055450,788.963257 473.934265,796.820740 
	C473.985504,798.558350 474.036743,800.295898 473.990479,802.851013 
	C474.023712,804.221130 474.056946,805.591187 473.937286,807.865906 
	C473.987335,810.921875 474.037384,813.977783 473.989136,817.960510 
	C474.022430,823.627380 474.055725,829.294312 473.941010,835.642212 
	C473.992065,836.101257 474.043091,836.560303 474.004944,837.901428 
	C474.442841,841.665466 474.277893,845.633423 475.464966,849.144104 
	C477.099487,853.977966 479.755981,858.466187 481.967529,863.817505 
	C486.314850,868.205078 490.662170,872.592590 495.555878,877.418152 
	C509.039856,885.055237 523.274475,885.540344 538.691284,881.905823 
	C542.185486,880.415894 546.088562,879.489380 549.085632,877.314331 
	C554.676941,873.256714 559.741516,868.473267 565.068542,864.919617 
	C565.068542,870.018616 565.068542,875.117615 565.068542,880.430969 
	C576.490479,880.430969 587.522644,880.430969 598.907837,880.430969 
	C598.907837,879.263672 598.907837,878.150818 599.061584,876.121521 
	C599.010620,872.403137 598.959595,868.684753 599.005737,864.237549 
	C598.972839,863.504517 598.939941,862.771423 599.060303,861.232300 
	C599.009949,860.143127 598.959595,859.054016 599.007324,857.039062 
	C598.973999,851.706177 598.940674,846.373291 599.060669,840.128235 
	C599.008789,836.740417 598.956909,833.352661 599.003052,829.236633 
	C598.970642,828.504028 598.938232,827.771484 599.061279,826.107849 
	C599.010315,809.726624 598.959351,793.345398 599.004700,776.102905 
	C598.970581,774.082825 598.936462,772.062744 599.056702,769.138550 
	C599.004333,766.085632 598.951904,763.032776 598.995178,759.328918 
	C598.963074,758.892700 598.931030,758.456421 599.053467,757.191833 
	C599.016479,755.790405 598.979492,754.389038 598.677979,752.143555 
	C587.406250,752.143555 576.134583,752.143555 564.211914,752.143555 
	C564.211914,776.488586 564.211914,800.724487 564.026611,825.667175 
	C562.655212,829.913635 561.828674,834.440918 559.811096,838.354248 
	C553.559021,850.480713 540.471558,856.518250 527.140381,853.763428 
	C517.289856,851.727783 512.253967,844.696655 509.094055,834.949768 
	C508.754852,825.332947 508.206360,815.717957 508.121674,806.098877 
	C507.963989,788.192810 508.076416,770.284363 508.076416,752.017700 
	C496.814423,752.017700 485.894684,752.010376 474.975189,752.058228 
	C474.690399,752.059448 474.408264,752.663330 474.004059,753.866089 
M854.111938,704.995422 
	C843.061646,705.041138 832.011353,705.086792 820.188904,705.189087 
	C819.999451,706.454712 819.644958,707.720154 819.644287,708.985901 
	C819.612122,765.279358 819.610291,821.572815 819.614929,877.866272 
	C819.614990,878.646851 819.744080,879.427368 819.814941,880.230713 
	C832.025146,880.230713 843.925598,880.230713 855.836487,880.230713 
	C855.910522,879.458557 855.999146,878.965271 855.999207,878.471985 
	C856.009033,821.845459 856.018005,765.218994 855.975342,708.592529 
	C855.974487,707.443970 855.367981,706.295837 854.111938,704.995422 
z"/>
<path fill="#7F61D3" opacity="1.000000" stroke="none" 
	d="
M280.111481,418.052917 
	C280.058929,412.659210 280.006378,407.265503 280.304688,401.128876 
	C280.473999,397.608307 280.292450,394.830688 280.110901,392.053040 
	C280.059235,388.655640 280.007568,385.258270 280.270233,381.228271 
	C280.425537,379.746582 280.266510,378.897430 280.107483,378.048309 
	C280.056305,377.270081 280.005096,376.491852 280.287903,375.103668 
	C280.450256,373.012573 280.278564,371.531403 280.106873,370.050262 
	C280.056000,369.271240 280.005127,368.492188 280.314423,367.030518 
	C280.771545,347.818359 280.876282,329.288818 280.928741,310.759155 
	C280.930359,310.189636 280.388702,309.618591 280.100342,309.048279 
	C280.050293,307.627869 280.000214,306.207489 280.308289,304.076874 
	C280.481354,299.595490 280.296326,295.824310 280.111267,292.053131 
	C279.469879,262.649811 290.305603,238.985748 316.133850,223.912201 
	C346.692749,206.077805 377.746613,189.090942 408.602844,171.766876 
	C429.170929,160.219040 449.768616,148.723907 470.896484,137.386780 
	C475.618988,135.339737 479.798004,133.111069 483.977020,130.882416 
	C483.977020,130.882416 483.981873,130.961716 484.361877,130.962692 
	C485.563690,130.910904 486.426422,131.002640 487.201202,130.783508 
	C497.395569,127.900337 507.616302,125.505196 518.315002,127.915497 
	C519.095703,128.091385 520.077332,127.375977 520.965515,127.074959 
	C527.014709,129.231430 533.491211,130.610672 539.046814,133.664963 
	C592.878723,163.260406 646.580688,193.092972 700.257263,222.970001 
	C710.997437,228.948151 720.145935,236.842484 726.642700,247.858154 
	C727.014221,248.894714 727.541687,249.432877 728.069153,249.971024 
	C728.069153,249.971024 728.001404,249.983978 728.042236,250.270538 
	C728.427551,251.032928 728.772034,251.508774 729.116516,251.984619 
	C729.116516,251.984604 729.031189,251.981827 729.057434,252.262421 
	C729.434937,253.022385 729.786255,253.501740 730.137512,253.981110 
	C730.137512,253.981110 730.043396,253.981262 730.057129,254.258423 
	C730.421082,255.018646 730.771301,255.501709 731.121460,255.984787 
	C731.121460,255.984787 731.036072,255.982544 731.034424,256.349030 
	C732.405090,260.474487 733.777527,264.233459 735.149902,267.992432 
	C735.149902,267.992432 735.044006,267.976013 735.036133,268.291412 
	C735.566528,269.713898 736.104858,270.820953 736.643188,271.928009 
	C737.105591,274.691620 737.567932,277.455231 737.677002,280.934601 
	C737.211670,282.632385 737.001892,283.614349 737.001648,284.596405 
	C736.985840,346.978058 736.981140,409.359741 737.024719,471.741364 
	C737.025696,473.144714 737.593079,474.547638 737.896240,475.950745 
	C735.878052,499.455933 724.793823,517.660522 704.839966,529.929138 
	C687.142334,540.810486 668.860291,550.740295 650.852539,561.118408 
	C617.280212,580.466675 583.671509,599.752625 550.169861,619.222595 
	C524.289734,634.263184 498.734192,635.269348 472.302002,619.968628 
	C420.779480,590.143799 368.934418,560.874146 317.121063,531.554688 
	C291.855896,517.257874 279.568909,495.769165 280.298615,466.147095 
	C280.464630,463.302795 280.288025,461.177979 280.111389,459.053162 
	C280.059326,455.323700 280.007294,451.594238 280.269440,447.230164 
	C280.426239,445.747162 280.268799,444.898773 280.111389,444.050354 
	C280.057800,439.329254 280.004181,434.608154 280.188812,429.347137 
	C280.320007,428.550842 280.212982,428.294434 280.105927,428.038055 
	C280.055725,427.260895 280.005524,426.483704 280.298157,425.064514 
	C280.464447,422.299286 280.287964,420.176086 280.111481,418.052917 
M353.037842,466.961731 
	C353.037842,466.961731 353.047150,466.867310 353.234619,467.383392 
	C353.536743,467.574799 353.838837,467.766205 354.051971,467.996948 
	C354.051971,467.996948 354.019348,467.905304 354.286591,468.425354 
	C354.630127,468.596619 354.973633,468.767853 355.802765,469.105804 
	C356.222595,469.629761 356.642426,470.153717 357.220123,471.245087 
	C357.511444,471.490204 357.802734,471.735321 358.005493,471.954071 
	C358.005493,471.954071 358.039246,471.868073 358.226868,472.382324 
	C358.527527,472.574768 358.828186,472.767212 359.028198,472.958801 
	C359.028198,472.958801 359.043854,472.859375 359.234314,473.370667 
	C359.532288,473.562286 359.830261,473.753937 360.028412,473.813141 
	C360.028412,473.813141 360.161133,473.713745 360.176270,474.137878 
	C360.453674,474.085510 360.731110,474.033142 361.661011,474.189911 
	C362.338684,474.671112 362.983337,475.209167 363.698792,475.625427 
	C403.625275,498.855957 443.434784,522.291565 483.545715,545.199280 
	C501.365936,555.376587 519.646912,555.020447 537.551270,544.569031 
	C576.585693,521.783264 615.621704,498.999908 654.703674,476.295776 
	C667.240479,469.012695 674.368958,458.287903 676.940735,443.756805 
	C677.289246,442.560547 677.940430,441.364746 677.942261,440.167969 
	C677.996643,404.131683 678.006165,368.095276 677.912048,332.059174 
	C677.908569,330.720398 676.796631,329.384521 676.016052,327.202362 
	C674.305115,312.211700 668.199707,299.685791 654.640503,292.140015 
	C619.125488,272.375763 583.512329,252.784851 547.787231,233.403137 
	C537.766357,227.966583 527.222351,223.494186 516.718750,217.907333 
	C510.280609,215.199463 503.927246,216.800690 497.605072,218.383316 
	C496.971527,218.541916 496.547852,219.538620 496.012024,220.056747 
	C496.012024,220.056747 496.102844,220.056091 495.302612,220.035126 
	C492.200470,221.693909 489.098328,223.352707 485.797638,225.184769 
	C485.797638,225.184769 485.582947,225.032028 484.940399,225.187592 
	C484.629883,225.477905 484.319366,225.768219 484.012634,225.996017 
	C484.012634,225.996017 484.068237,226.024750 483.442200,226.091324 
	C482.965302,226.430283 482.488373,226.769241 482.018677,227.025925 
	C482.018677,227.025925 482.099487,227.042938 481.386993,227.092056 
	C480.810669,227.482117 480.234375,227.872192 479.373932,228.834335 
	C441.480865,250.090973 403.702423,271.556335 365.619690,292.467529 
	C355.210052,298.183472 348.448090,306.186218 343.856110,317.265869 
	C343.830383,318.476410 343.804657,319.686951 343.838440,321.509644 
	C343.760986,321.699432 343.683533,321.889252 342.886658,322.321533 
	C342.588959,323.877686 342.033386,325.433502 342.031403,326.990051 
	C341.983948,364.062744 341.985168,401.135529 342.034058,438.208221 
	C342.036133,439.785309 342.579956,441.361664 343.018646,443.386932 
	C343.018646,443.386932 343.032990,443.858826 343.011719,444.733459 
	C343.353424,449.158752 342.955536,453.831543 347.029907,456.980316 
	C347.029907,456.980316 347.041748,456.901398 347.085510,457.538361 
	C347.426422,458.021484 347.767334,458.504639 348.026215,458.980835 
	C348.026215,458.980835 348.043121,458.900269 348.082184,459.544586 
	C348.437378,460.022614 348.792603,460.500641 349.047211,460.968933 
	C349.047211,460.968933 349.074158,460.871490 349.066772,461.522461 
	C349.429047,462.001953 349.791321,462.481445 350.054413,462.985535 
	C350.054413,462.985535 350.042847,462.883972 350.238464,463.394043 
	C350.538605,463.584900 350.838745,463.775787 351.047577,463.963898 
	C351.047577,463.963898 351.068695,463.875031 351.068542,464.524414 
	C351.433868,464.999237 351.799194,465.474060 352.067596,465.981812 
	C352.067596,465.981812 352.049774,465.881012 352.243866,466.384125 
	C352.540039,466.574219 352.836243,466.764313 353.037842,466.961731 
z"/>
<path fill="#674BB9" opacity="1.000000" stroke="none" 
	d="
M783.381470,852.923523 
	C785.216187,857.722290 787.050903,862.520996 788.616821,867.912659 
	C789.195129,871.754211 790.042175,875.002869 791.095520,879.042542 
	C779.364990,879.042542 768.153625,879.042542 756.868164,878.882568 
	C756.520508,878.795715 756.246887,878.868896 755.968079,878.961426 
	C755.962830,878.980774 755.933289,878.953491 755.622803,879.000488 
	C755.116821,879.122803 754.921448,879.198120 754.726135,879.273438 
	C754.726135,879.273438 754.750244,879.086121 754.875061,878.715698 
	C754.569519,877.578796 754.139099,876.812317 753.708740,876.045776 
	C753.352783,875.979065 753.147644,875.766724 753.380371,874.935059 
	C750.594604,864.361694 747.537659,854.256958 744.401062,844.177002 
	C744.247375,843.683044 743.396667,843.405884 742.870544,843.027771 
	C742.411316,842.716797 741.952087,842.405884 741.152466,841.831665 
	C740.549622,841.684326 740.287231,841.800232 740.024841,841.916138 
	C739.567261,841.965393 739.109680,842.014648 738.237427,841.819946 
	C737.557129,841.688293 737.291565,841.800537 737.026001,841.912842 
	C735.617004,841.964417 734.207947,842.015991 732.089600,841.698242 
	C725.597107,841.525696 719.813965,841.722534 714.030884,841.919373 
	C710.977295,841.970398 707.923767,842.021484 704.167603,841.717163 
	C701.320374,841.547424 699.175720,841.733032 697.031128,841.918701 
	C694.972290,841.969055 692.913452,842.019348 690.335693,841.606873 
	C685.114380,839.441101 680.478516,838.941528 676.033936,841.905334 
	C675.425293,842.103638 674.816589,842.301941 673.681091,842.829834 
	C670.049133,851.476501 666.826904,859.752502 663.894348,868.130005 
	C662.652893,871.676636 662.019836,875.436279 661.110229,879.099121 
	C661.110229,879.099121 661.212219,879.076538 660.741699,879.051392 
	C649.476929,879.026184 638.682800,879.026184 628.114136,879.026184 
	C627.728333,877.462891 627.432129,876.262451 627.135986,875.062073 
	C630.382996,865.953308 633.698425,856.868225 636.861877,847.730530 
	C642.307373,832.001282 647.658325,816.239258 653.619995,800.100952 
	C654.775879,798.733826 655.546204,797.822266 655.917175,796.769897 
	C660.434448,783.957581 664.971741,771.151184 669.307251,758.277039 
	C670.299805,755.329712 670.544556,752.130554 671.133484,749.047302 
	C673.123596,743.174683 675.113647,737.302002 677.706909,731.085571 
	C679.160583,729.194336 680.221008,727.723938 680.822449,726.085083 
	C682.706360,720.951599 684.545044,715.793762 686.145081,710.566956 
	C687.035278,707.659058 688.677795,706.886536 691.604187,706.930359 
	C702.740295,707.097290 713.901306,707.403625 725.010559,706.832825 
	C730.896973,706.530334 733.514832,708.408081 735.007141,713.993958 
	C736.470276,719.470520 739.112610,724.631897 741.237366,729.931641 
	C741.237366,729.931641 741.112915,729.967041 741.068542,730.319275 
	C741.443848,732.602173 741.685852,734.592957 742.314636,736.452942 
	C744.759766,743.686035 747.410828,750.849854 749.834717,758.089783 
	C758.002441,782.487000 766.054077,806.923218 774.288818,831.297607 
	C775.534607,834.985168 777.517761,838.423584 779.159851,841.977234 
	C779.159851,841.977234 779.051941,841.968811 779.035034,842.326843 
	C780.472595,846.097778 781.927002,849.510620 783.381470,852.923523 
M727.887451,795.008911 
	C727.887451,795.008911 727.901062,795.131287 727.951355,794.397034 
	C727.554321,793.614441 727.157288,792.831787 726.878967,792.011719 
	C726.878967,792.011719 726.893555,792.135315 726.961304,791.348572 
	C726.227661,789.583618 725.494019,787.818665 724.876648,786.014832 
	C724.876648,786.014832 724.892090,786.136536 724.962891,785.317688 
	C723.829102,782.570007 722.695312,779.822327 721.095093,776.536926 
	C717.263123,764.481812 713.431152,752.426636 709.252197,739.279907 
	C706.028992,748.393860 703.252747,756.243958 699.669006,764.113953 
	C698.476440,768.120239 697.283936,772.126526 696.109863,776.021484 
	C696.109863,776.021484 696.215271,776.061768 695.500183,776.265564 
	C693.027832,783.890076 690.555420,791.514648 688.058777,799.031311 
	C688.058777,799.031311 688.169312,799.027161 687.552551,799.312134 
	C687.327942,800.860413 687.103271,802.408630 686.857483,804.678467 
	C686.239014,807.453552 685.620605,810.228699 685.575317,813.612732 
	C700.677734,813.730774 715.780029,813.863525 730.882629,813.920349 
	C731.583435,813.922974 732.286682,813.246826 732.962646,812.256470 
	C732.978271,811.836548 732.993835,811.416626 733.373352,810.793396 
	C733.160889,810.569824 732.948425,810.346191 732.823486,810.037415 
	C732.823486,810.037415 732.896667,810.135193 732.951965,809.400879 
	C732.558167,808.615601 732.164368,807.830261 731.886475,807.008118 
	C731.886475,807.008118 731.902832,807.128662 731.959167,806.343018 
	C731.231323,804.577209 730.503418,802.811462 729.889404,801.009705 
	C729.889404,801.009705 729.904907,801.128113 729.952393,800.395447 
	C729.559814,799.610962 729.167236,798.826477 728.893677,798.012573 
	C728.893677,798.012573 728.900757,798.134949 728.951843,797.401062 
	C728.557678,796.615295 728.163513,795.829529 727.887451,795.008911 
z"/>
<path fill="#674BB9" opacity="1.000000" stroke="none" 
	d="
M311.133057,800.049438 
	C311.114075,799.855774 311.095062,799.662048 311.543640,799.127808 
	C313.650085,793.482666 315.288940,788.178223 316.927795,782.873718 
	C316.927826,782.873718 316.946320,782.972046 317.195190,782.836304 
	C317.599670,782.083374 317.755280,781.466309 317.910858,780.849182 
	C317.910858,780.849182 317.935455,780.963074 318.179169,780.833496 
	C318.590790,780.091064 318.758698,779.478333 318.926575,778.865540 
	C318.926575,778.865540 318.945587,778.958984 319.168152,778.864380 
	C319.544922,778.435852 319.699127,778.101929 319.853333,777.767944 
	C319.853333,777.767944 319.818359,777.913208 320.122864,777.814270 
	C320.932983,776.441101 321.438599,775.166870 321.944214,773.892639 
	C321.944214,773.892639 321.972717,773.970154 322.294556,773.938721 
	C323.087891,772.912231 323.559387,771.917053 324.030884,770.921936 
	C333.926880,756.802307 348.141541,750.941406 364.740936,750.074768 
	C371.593140,749.717163 378.610168,749.441101 385.336670,750.498840 
	C394.583801,751.952820 401.954529,757.533081 409.008179,764.940857 
	C409.008179,743.982727 409.008179,723.933838 409.542023,703.449585 
	C420.508484,703.014282 430.941101,703.014282 442.007782,703.014282 
	C442.007782,705.549988 442.007812,707.497498 442.007782,709.445007 
	C442.007141,762.523315 442.006073,815.601685 442.006256,868.679993 
	C442.006287,879.046936 442.008453,879.046204 431.460419,879.043762 
	C425.057037,879.042236 418.653656,879.043457 411.959686,879.043457 
	C411.959686,875.276428 412.092682,872.449829 411.900574,869.645447 
	C411.811646,868.347229 411.088989,867.092285 410.653625,865.817749 
	C408.707153,867.472778 406.760712,869.127869 404.159424,870.917969 
	C403.060760,871.472900 402.616913,871.892761 402.173065,872.312622 
	C402.173065,872.312622 402.102234,872.181030 401.881500,872.220215 
	C401.492676,872.598755 401.324585,872.938110 401.156525,873.277466 
	C401.156525,873.277466 401.201477,873.158997 400.888062,873.148071 
	C400.063202,873.787231 399.551727,874.437378 399.040222,875.087524 
	C399.040222,875.087524 399.023285,875.011414 398.685364,875.021606 
	C396.579285,876.078796 394.811188,877.125854 393.043060,878.172913 
	C393.043060,878.172913 393.040833,878.064941 392.690369,878.044739 
	C376.853088,883.299744 361.362427,884.104797 345.829681,878.166443 
	C344.959381,877.833801 343.864105,878.089600 342.873566,878.071533 
	C342.873566,878.071472 342.964111,878.057678 342.867249,877.833496 
	C342.435791,877.460938 342.101227,877.312500 341.766663,877.164062 
	C341.766632,877.164124 341.912842,877.146973 341.765320,876.881836 
	C340.710541,876.428711 339.803284,876.240784 338.896027,876.052856 
	C338.896027,876.052856 338.973175,876.025757 338.940918,875.697205 
	C337.880981,874.951355 336.853333,874.534058 335.825684,874.116760 
	C335.825684,874.116760 335.935120,874.083191 335.850342,873.861328 
	C335.431213,873.473206 335.096863,873.306885 334.762482,873.140564 
	C334.762482,873.140564 334.878448,873.281128 334.839020,873.108032 
	C334.531952,872.960022 334.264313,872.985046 333.996674,873.010071 
	C322.805298,865.218262 315.598236,854.763611 312.789703,841.350281 
	C312.560913,840.257690 312.111908,839.211121 311.873901,837.281494 
	C311.662598,828.038635 311.378479,819.655884 310.993408,811.277710 
	C310.913177,809.532166 310.459503,807.803833 310.177948,806.067566 
	C310.152496,805.872681 310.127075,805.677734 310.547546,805.132812 
	C311.039948,803.205017 311.086487,801.627258 311.133057,800.049438 
M400.794250,785.186646 
	C400.794250,785.186646 400.766907,785.327148 400.696228,784.728027 
	C400.352997,784.566528 400.009735,784.405029 399.803589,784.200684 
	C399.803589,784.200684 399.759521,784.337402 399.694519,783.735779 
	C399.346893,783.594910 398.999237,783.454041 398.788757,783.310486 
	C398.788757,783.310486 398.697937,783.413330 398.636566,782.735962 
	C398.034485,782.531433 397.432434,782.326965 396.937714,782.089844 
	C396.937714,782.089844 396.878510,782.185120 396.926666,781.567749 
	C396.286163,781.374268 395.645691,781.180786 394.451294,780.892944 
	C393.703705,780.360535 392.956116,779.828125 391.853729,778.581482 
	C388.516937,777.434937 385.244568,775.621460 381.828888,775.291504 
	C376.093079,774.737305 370.043793,773.897400 365.024506,778.067566 
	C365.024506,778.067566 365.137939,778.081421 364.525787,778.081055 
	C364.027283,778.359070 363.528778,778.637085 362.643738,779.063782 
	C362.643738,779.063782 362.229706,779.054138 361.680908,779.227417 
	C361.440613,779.513123 361.200317,779.798889 360.747925,780.210205 
	C360.747925,780.210205 360.579285,780.030457 359.822754,780.250977 
	C359.415588,780.582764 359.008423,780.914490 358.473572,781.862610 
	C354.971313,786.799805 350.448242,791.311829 348.178223,796.762268 
	C343.377960,808.287720 343.659851,820.389038 346.964600,832.434814 
	C350.140350,844.010193 357.132294,851.611084 369.269348,855.042969 
	C374.737793,855.021973 380.254120,855.417847 385.653625,854.797302 
	C388.203369,854.504150 390.529144,852.262695 392.975006,850.980408 
	C392.975006,850.980408 392.900391,850.955750 393.555511,850.907410 
	C394.020050,850.528687 394.484589,850.149963 395.275330,849.201477 
	C403.362701,843.945618 407.236755,836.033813 410.002350,826.779358 
	C410.518616,820.567322 411.578979,814.334961 411.347992,808.150818 
	C411.208466,804.415161 409.064423,800.754333 407.914703,797.044983 
	C407.914703,797.044983 407.901031,797.138855 407.960907,796.339539 
	C406.944855,794.574402 405.928802,792.809204 404.989868,791.021423 
	C404.989868,791.021423 404.950836,791.091675 404.909668,790.429993 
	C404.501740,789.980957 404.093842,789.531921 403.280212,788.925415 
	C403.046143,788.717285 402.937897,788.456909 402.925659,787.472961 
	C402.490509,787.063782 402.055359,786.654541 401.761993,786.179871 
	C401.761993,786.179871 401.739532,786.334412 401.690491,785.732361 
	C401.347961,785.569397 401.005432,785.406494 400.794250,785.186646 
z"/>
<path fill="#674CB9" opacity="1.000000" stroke="none" 
	d="
M212.021362,735.832336 
	C212.021362,735.832336 211.723557,736.083557 211.162064,736.277954 
	C210.425201,736.928955 210.098312,737.384827 210.096527,737.842041 
	C210.047501,750.458923 209.992447,763.076111 210.078461,775.692322 
	C210.085983,776.795166 211.056290,777.891357 211.579407,778.990662 
	C211.579407,778.990662 211.815674,778.832703 212.203842,779.234619 
	C214.407043,779.758606 216.221939,779.984192 218.037155,779.986755 
	C236.036377,780.012512 254.035675,780.001404 272.034943,780.000732 
	C273.816162,780.000671 275.597382,780.000732 277.538879,780.000732 
	C277.538879,789.309204 277.538879,797.991211 277.538879,806.988342 
	C257.257965,806.988342 237.438156,806.960388 217.618729,807.033752 
	C215.737534,807.040771 213.858719,807.682922 211.978806,808.030273 
	C211.978806,808.030273 211.849075,808.169556 211.425522,808.182251 
	C210.674240,808.476013 210.346527,808.757019 210.019287,809.504272 
	C210.017883,822.981995 210.016037,835.993408 209.850861,849.095642 
	C209.811890,849.445679 209.936249,849.704895 210.343231,849.960083 
	C210.813904,849.943481 211.001923,849.931030 211.189941,849.918579 
	C211.189941,849.918579 211.075775,849.853394 211.111130,850.218384 
	C212.729095,851.382996 214.291672,852.823486 215.897705,852.873657 
	C223.630539,853.115356 231.376953,853.090454 239.115082,852.957886 
	C252.457001,852.729492 265.795593,852.267822 279.137787,852.147156 
	C280.709503,852.132874 283.625122,853.583984 283.665894,854.460571 
	C284.025085,862.184265 283.874176,869.931763 283.874176,877.992493 
	C247.729080,877.992493 212.373169,877.992493 177.013763,877.524658 
	C177.010803,820.706299 177.011383,764.355835 177.390427,707.828613 
	C178.731979,707.438538 179.694870,707.039795 180.658157,707.038879 
	C214.315704,707.006836 247.973328,707.034851 281.630798,706.976196 
	C284.873077,706.970520 286.197235,708.269897 286.002350,711.452393 
	C285.668457,716.903931 284.964844,722.387512 285.272369,727.809143 
	C285.622284,733.978760 286.030090,733.981812 279.991211,733.985474 
	C258.996887,733.998047 238.002304,733.949219 217.008652,734.070740 
	C215.342880,734.080444 213.683640,735.218567 212.021362,735.832336 
z"/>
<path fill="#674CB9" opacity="1.000000" stroke="none" 
	d="
M474.087982,802.033508 
	C474.036743,800.295898 473.985504,798.558350 474.303558,796.099243 
	C474.479767,788.263794 474.286682,781.149841 474.093628,774.035950 
	C474.042755,769.984009 473.991852,765.932129 474.299927,761.144653 
	C474.804016,757.972046 474.949127,755.535034 475.556183,753.070374 
	C486.246613,753.042786 496.475098,753.042786 506.985291,753.042786 
	C506.985291,755.752014 506.984680,757.570984 506.985382,759.389954 
	C506.994263,782.357117 506.937408,805.324768 507.106567,828.290771 
	C507.125031,830.800293 508.445435,833.300232 509.161987,835.804626 
	C512.253967,844.696655 517.289856,851.727783 527.140381,853.763428 
	C540.471558,856.518250 553.559021,850.480713 559.811096,838.354248 
	C561.828674,834.440918 562.655212,829.913635 564.498474,825.209229 
	C565.317261,823.057007 565.960022,821.363831 565.965942,819.668396 
	C566.036194,799.410767 566.005920,779.152832 566.022522,758.894958 
	C566.023987,757.123352 566.170654,755.351868 566.276428,752.987610 
	C577.446411,752.987610 588.194458,752.987610 598.942505,752.987610 
	C598.979492,754.389038 599.016479,755.790405 598.689270,757.631775 
	C598.028198,758.395935 597.731323,758.720154 597.434448,759.044312 
	C597.922791,759.356140 598.411194,759.668030 598.899536,759.979858 
	C598.951904,763.032776 599.004333,766.085632 598.706909,769.845581 
	C598.540894,772.689758 598.724609,774.826965 598.908325,776.964172 
	C598.959351,793.345398 599.010315,809.726624 598.738892,826.746826 
	C598.579285,828.245422 598.742188,829.105164 598.905029,829.964844 
	C598.956909,833.352661 599.008789,836.740417 598.693359,840.878052 
	C598.520508,847.073486 598.714844,852.519165 598.909180,857.964844 
	C598.959595,859.054016 599.009949,860.143127 598.738464,861.808838 
	C598.580627,863.245667 598.744629,864.106018 598.908630,864.966370 
	C598.959595,868.684753 599.010620,872.403137 598.677551,876.811035 
	C597.653931,877.977783 597.018860,878.863403 596.374084,878.870422 
	C587.409668,878.969482 578.441528,879.040405 569.482361,878.807739 
	C568.625122,878.785522 567.229919,876.747009 567.107178,875.540527 
	C566.772461,872.253418 567.077393,868.905457 566.894653,865.594543 
	C566.863403,865.027710 565.677734,864.524536 565.025330,863.991943 
	C559.741516,868.473267 554.676941,873.256714 549.085632,877.314331 
	C546.088562,879.489380 542.185486,880.415894 538.049316,881.611450 
	C536.263428,881.272461 535.099121,881.066040 533.978943,881.208069 
	C521.646667,882.770630 509.472443,883.164917 498.000488,877.084473 
	C497.207733,876.664307 496.015808,876.997375 495.009460,876.980103 
	C490.662170,872.592590 486.314850,868.205078 481.938416,863.090820 
	C478.487488,855.086243 475.603149,847.684631 475.878174,839.408569 
	C475.903961,838.632751 474.717651,837.816711 474.094116,837.019348 
	C474.043091,836.560303 473.992065,836.101257 474.305725,835.007568 
	C474.476105,828.593140 474.281769,822.813477 474.087402,817.033752 
	C474.037384,813.977783 473.987335,810.921875 474.278442,807.189819 
	C474.442383,805.020264 474.265167,803.526917 474.087982,802.033508 
z"/>
<path fill="#674BB9" opacity="1.000000" stroke="none" 
	d="
M820.961060,705.132507 
	C832.011353,705.086792 843.061646,705.041138 854.547485,705.529541 
	C854.983093,763.577698 854.983093,821.091675 854.983093,878.659485 
	C843.277588,878.659485 832.387390,878.659485 820.961060,878.659485 
	C820.961060,820.573792 820.961060,762.853149 820.961060,705.132507 
z"/>
<path fill="#3C18A6" opacity="1.000000" stroke="none" 
	d="
M820.574951,705.160767 
	C820.961060,762.853149 820.961060,820.573792 820.961060,878.659485 
	C832.387390,878.659485 843.277588,878.659485 854.983093,878.659485 
	C854.983093,821.091675 854.983093,763.577698 855.013550,705.605591 
	C855.367981,706.295837 855.974487,707.443970 855.975342,708.592529 
	C856.018005,765.218994 856.009033,821.845459 855.999207,878.471985 
	C855.999146,878.965271 855.910522,879.458557 855.836487,880.230713 
	C843.925598,880.230713 832.025146,880.230713 819.814941,880.230713 
	C819.744080,879.427368 819.614990,878.646851 819.614929,877.866272 
	C819.610291,821.572815 819.612122,765.279358 819.644287,708.985901 
	C819.644958,707.720154 819.999451,706.454712 820.574951,705.160767 
z"/>
<path fill="#5A3BB3" opacity="1.000000" stroke="none" 
	d="
M177.017273,877.992493 
	C212.373169,877.992493 247.729080,877.992493 283.874176,877.992493 
	C283.874176,869.931763 284.025085,862.184265 283.665894,854.460571 
	C283.625122,853.583984 280.709503,852.132874 279.137787,852.147156 
	C265.795593,852.267822 252.457001,852.729492 239.115082,852.957886 
	C231.376953,853.090454 223.630539,853.115356 215.897705,852.873657 
	C214.291672,852.823486 212.729095,851.382996 211.155853,850.170166 
	C212.972443,849.921143 214.779419,850.224976 216.586884,850.227905 
	C237.070587,850.261658 257.554352,850.249084 278.038116,850.249023 
	C280.341553,850.248962 282.645020,850.249084 285.231476,850.249084 
	C285.231476,860.505371 285.231476,870.412170 285.231476,880.661682 
	C284.222321,880.732849 283.283813,880.856934 282.345276,880.856995 
	C248.372223,880.859924 214.399155,880.863647 180.426193,880.802795 
	C178.921570,880.800110 177.418030,880.193298 176.186325,879.345825 
	C176.644867,878.546631 176.831055,878.269592 177.017273,877.992493 
z"/>
<path fill="#5A3BB3" opacity="1.000000" stroke="none" 
	d="
M212.487213,735.869873 
	C213.683640,735.218567 215.342880,734.080444 217.008652,734.070740 
	C238.002304,733.949219 258.996887,733.998047 279.991211,733.985474 
	C286.030090,733.981812 285.622284,733.978760 285.272369,727.809143 
	C284.964844,722.387512 285.668457,716.903931 286.002350,711.452393 
	C286.197235,708.269897 284.873077,706.970520 281.630798,706.976196 
	C247.973328,707.034851 214.315704,707.006836 180.658157,707.038879 
	C179.694870,707.039795 178.731979,707.438538 177.279312,707.602661 
	C176.520477,707.370239 176.251251,707.186890 175.982025,707.003540 
	C176.914658,706.365601 177.833496,705.200012 178.782150,705.175171 
	C185.098267,705.010010 191.420746,705.088806 197.741165,705.088501 
	C226.016693,705.087097 254.292221,705.085632 282.567749,705.084229 
	C284.188538,705.084167 285.809326,705.084290 287.647522,705.084290 
	C287.647522,715.470520 287.647522,725.375793 287.647522,735.907349 
	C262.701904,735.907349 237.827484,735.907349 212.487213,735.869873 
z"/>
<path fill="#3C18A6" opacity="1.000000" stroke="none" 
	d="
M410.514648,866.273804 
	C411.088989,867.092285 411.811646,868.347229 411.900574,869.645447 
	C412.092682,872.449829 411.959686,875.276428 411.959686,879.043457 
	C418.653656,879.043457 425.057037,879.042236 431.460419,879.043762 
	C442.008453,879.046204 442.006287,879.046936 442.006256,868.679993 
	C442.006073,815.601685 442.007141,762.523315 442.007782,709.445007 
	C442.007812,707.497498 442.007782,705.549988 442.007782,703.014282 
	C430.941101,703.014282 420.508484,703.014282 409.618744,702.983521 
	C409.637360,702.621216 410.111603,702.002808 410.589081,702.000366 
	C421.220398,701.945312 431.852051,701.958191 442.739624,701.958191 
	C442.739624,761.439392 442.739624,820.666382 442.739624,880.287598 
	C432.296051,880.287598 421.739136,880.287598 410.375671,880.287598 
	C410.375671,875.882751 410.375671,871.306274 410.514648,866.273804 
z"/>
<path fill="#4E2DAF" opacity="1.000000" stroke="none" 
	d="
M779.114624,841.578979 
	C777.517761,838.423584 775.534607,834.985168 774.288818,831.297607 
	C766.054077,806.923218 758.002441,782.487000 749.834717,758.089783 
	C747.410828,750.849854 744.759766,743.686035 742.314636,736.452942 
	C741.685852,734.592957 741.443848,732.602173 741.065063,730.254639 
	C745.110168,741.161499 749.218140,752.449768 753.097595,763.816101 
	C761.567688,788.632385 769.923645,813.487732 778.314636,838.331055 
	C778.628357,839.259949 778.820557,840.229858 779.114624,841.578979 
z"/>
<path fill="#643FCC" opacity="1.000000" stroke="none" 
	d="
M737.955078,475.488586 
	C737.593079,474.547638 737.025696,473.144714 737.024719,471.741364 
	C736.981140,409.359741 736.985840,346.978058 737.001648,284.596405 
	C737.001892,283.614349 737.211670,282.632385 737.608643,281.353058 
	C737.995361,308.883240 738.171143,336.710724 738.180603,364.538239 
	C738.193176,401.367615 738.075562,438.197052 737.955078,475.488586 
z"/>
<path fill="#4E2DAF" opacity="1.000000" stroke="none" 
	d="
M598.810242,752.565552 
	C588.194458,752.987610 577.446411,752.987610 566.276428,752.987610 
	C566.170654,755.351868 566.023987,757.123352 566.022522,758.894958 
	C566.005920,779.152832 566.036194,799.410767 565.965942,819.668396 
	C565.960022,821.363831 565.317261,823.057007 564.591125,824.855835 
	C564.211914,800.724487 564.211914,776.488586 564.211914,752.143555 
	C576.134583,752.143555 587.406250,752.143555 598.810242,752.565552 
z"/>
<path fill="#5A3BB3" opacity="1.000000" stroke="none" 
	d="
M741.202637,729.532593 
	C739.112610,724.631897 736.470276,719.470520 735.007141,713.993958 
	C733.514832,708.408081 730.896973,706.530334 725.010559,706.832825 
	C713.901306,707.403625 702.740295,707.097290 691.604187,706.930359 
	C688.677795,706.886536 687.035278,707.659058 686.145081,710.566956 
	C684.545044,715.793762 682.706360,720.951599 680.822449,726.085083 
	C680.221008,727.723938 679.160583,729.194336 677.937866,730.822632 
	C680.457458,722.429565 683.349304,713.955688 686.412415,704.979797 
	C696.952515,704.979797 707.561218,704.921814 718.168823,705.004822 
	C723.285339,705.044922 729.636230,703.585754 733.154602,706.050659 
	C736.429810,708.345154 736.721130,714.935364 738.262756,719.655151 
	C739.288635,722.795898 740.203430,725.972839 741.202637,729.532593 
z"/>
<path fill="#3C18A6" opacity="1.000000" stroke="none" 
	d="
M175.941406,707.470459 
	C176.251251,707.186890 176.520477,707.370239 176.900833,707.779480 
	C177.011383,764.355835 177.010803,820.706299 177.013748,877.524658 
	C176.831055,878.269592 176.644867,878.546631 176.223083,878.914124 
	C175.958603,821.982117 175.929703,764.959778 175.941406,707.470459 
z"/>
<path fill="#3C18A6" opacity="1.000000" stroke="none" 
	d="
M212.449097,808.028564 
	C213.858719,807.682922 215.737534,807.040771 217.618729,807.033752 
	C237.438156,806.960388 257.257965,806.988342 277.538879,806.988342 
	C277.538879,797.991211 277.538879,789.309204 277.538879,780.000732 
	C275.597382,780.000732 273.816162,780.000671 272.034943,780.000732 
	C254.035675,780.001404 236.036377,780.012512 218.037155,779.986755 
	C216.221939,779.984192 214.407043,779.758606 212.305984,779.333374 
	C234.254303,779.030273 256.488647,779.030273 278.947998,779.030273 
	C278.947998,788.678894 278.947998,798.073975 278.947998,808.026794 
	C256.982697,808.026794 234.951050,808.026794 212.449097,808.028564 
z"/>
<path fill="#3C18A6" opacity="1.000000" stroke="none" 
	d="
M509.127991,835.377197 
	C508.445435,833.300232 507.125031,830.800293 507.106567,828.290771 
	C506.937408,805.324768 506.994263,782.357117 506.985382,759.389954 
	C506.984680,757.570984 506.985291,755.752014 506.985291,753.042786 
	C496.475098,753.042786 486.246613,753.042786 475.313904,753.037476 
	C474.609711,753.032227 474.124908,752.986145 474.124908,752.986145 
	C474.408264,752.663330 474.690399,752.059448 474.975189,752.058228 
	C485.894684,752.010376 496.814423,752.017700 508.076416,752.017700 
	C508.076416,770.284363 507.963989,788.192810 508.121674,806.098877 
	C508.206360,815.717957 508.754852,825.332947 509.127991,835.377197 
z"/>
<path fill="#4E2DAF" opacity="1.000000" stroke="none" 
	d="
M565.046936,864.455811 
	C565.677734,864.524536 566.863403,865.027710 566.894653,865.594543 
	C567.077393,868.905457 566.772461,872.253418 567.107178,875.540527 
	C567.229919,876.747009 568.625122,878.785522 569.482361,878.807739 
	C578.441528,879.040405 587.409668,878.969482 596.374084,878.870422 
	C597.018860,878.863403 597.653931,877.977783 598.600708,877.269287 
	C598.907837,878.150818 598.907837,879.263672 598.907837,880.430969 
	C587.522644,880.430969 576.490479,880.430969 565.068542,880.430969 
	C565.068542,875.117615 565.068542,870.018616 565.046936,864.455811 
z"/>
<path fill="#4E2DAF" opacity="1.000000" stroke="none" 
	d="
M671.005249,749.393921 
	C670.544556,752.130554 670.299805,755.329712 669.307251,758.277039 
	C664.971741,771.151184 660.434448,783.957581 655.917175,796.769897 
	C655.546204,797.822266 654.775879,798.733826 653.827087,799.825928 
	C659.267761,783.207520 665.072449,766.474060 671.005249,749.393921 
z"/>
<path fill="#4E2DAF" opacity="1.000000" stroke="none" 
	d="
M343.104126,878.343750 
	C343.864105,878.089600 344.959381,877.833801 345.829681,878.166443 
	C361.362427,884.104797 376.853088,883.299744 392.743347,878.055298 
	C383.288574,883.976929 372.429535,884.935242 361.458069,883.536682 
	C355.307800,882.752625 349.368835,880.310852 343.104126,878.343750 
z"/>
<path fill="#4E2DAF" opacity="1.000000" stroke="none" 
	d="
M495.282684,877.199097 
	C496.015808,876.997375 497.207733,876.664307 498.000488,877.084473 
	C509.472443,883.164917 521.646667,882.770630 533.978943,881.208069 
	C535.099121,881.066040 536.263428,881.272461 537.676392,881.592163 
	C523.274475,885.540344 509.039856,885.055237 495.282684,877.199097 
z"/>
<path fill="#3C18A6" opacity="1.000000" stroke="none" 
	d="
M627.008667,875.393188 
	C627.432129,876.262451 627.728333,877.462891 628.114136,879.026184 
	C638.682800,879.026184 649.476929,879.026184 660.758545,879.100769 
	C660.330933,879.577637 659.418457,880.322876 658.500488,880.329773 
	C647.600098,880.411072 636.698792,880.382141 625.277954,880.382141 
	C625.878052,878.639038 626.379761,877.181702 627.008667,875.393188 
z"/>
<path fill="#4E2DAF" opacity="1.000000" stroke="none" 
	d="
M661.438354,878.939209 
	C662.019836,875.436279 662.652893,871.676636 663.894348,868.130005 
	C666.826904,859.752502 670.049133,851.476501 673.496033,843.095520 
	C669.814087,854.947449 665.790283,866.863342 661.438354,878.939209 
z"/>
<path fill="#4E2DAF" opacity="1.000000" stroke="none" 
	d="
M742.895447,843.420654 
	C743.396667,843.405884 744.247375,843.683044 744.401062,844.177002 
	C747.537659,854.256958 750.594604,864.361694 753.407593,874.701660 
	C749.738586,864.565735 746.329468,854.189575 742.895447,843.420654 
z"/>
<path fill="#643FCC" opacity="1.000000" stroke="none" 
	d="
M280.055786,309.511719 
	C280.388702,309.618591 280.930359,310.189636 280.928741,310.759155 
	C280.876282,329.288818 280.771545,347.818359 280.390930,366.645935 
	C280.075256,347.954346 280.043274,328.964722 280.055786,309.511719 
z"/>
<path fill="#643FCC" opacity="1.000000" stroke="none" 
	d="
M520.566467,126.964005 
	C520.077332,127.375977 519.095703,128.091385 518.315002,127.915497 
	C507.616302,125.505196 497.395569,127.900337 487.201202,130.783508 
	C486.426422,131.002640 485.563690,130.910904 484.322327,130.958893 
	C495.513824,125.367592 507.690186,124.779945 520.566467,126.964005 
z"/>
<path fill="#3C18A6" opacity="1.000000" stroke="none" 
	d="
M756.942261,879.042542 
	C768.153625,879.042542 779.364990,879.042542 791.095520,879.042542 
	C790.042175,875.002869 789.195129,871.754211 788.610229,868.284851 
	C790.134644,871.475525 791.396851,874.886963 792.547974,878.818359 
	C792.302856,879.649048 792.168823,879.959717 792.034668,880.270386 
	C780.321289,880.293457 768.607971,880.316528 756.424683,879.959351 
	C755.947632,879.370667 755.940430,879.162048 755.933289,878.953491 
	C755.933289,878.953491 755.962830,878.980774 756.209106,878.999023 
	C756.455383,879.017212 756.942261,879.042542 756.942261,879.042542 
z"/>
<path fill="#4E2DAF" opacity="1.000000" stroke="none" 
	d="
M310.098480,806.482544 
	C310.459503,807.803833 310.913177,809.532166 310.993408,811.277710 
	C311.378479,819.655884 311.662598,828.038635 311.947937,836.894958 
	C311.135590,829.206299 310.294861,821.047607 309.625916,812.874878 
	C309.464783,810.906311 309.872742,808.891174 310.098480,806.482544 
z"/>
<path fill="#4E2DAF" opacity="1.000000" stroke="none" 
	d="
M474.049500,837.460388 
	C474.717651,837.816711 475.903961,838.632751 475.878174,839.408569 
	C475.603149,847.684631 478.487488,855.086243 481.941986,862.733276 
	C479.755981,858.466187 477.099487,853.977966 475.464966,849.144104 
	C474.277893,845.633423 474.442841,841.665466 474.049500,837.460388 
z"/>
<path fill="#3C18A6" opacity="1.000000" stroke="none" 
	d="
M211.456680,778.533936 
	C211.056290,777.891357 210.085983,776.795166 210.078461,775.692322 
	C209.992447,763.076111 210.047501,750.458923 210.096527,737.842041 
	C210.098312,737.384827 210.425201,736.928955 210.968948,736.252319 
	C211.336212,750.047180 211.335083,764.062256 211.456680,778.533936 
z"/>
<path fill="#3C18A6" opacity="1.000000" stroke="none" 
	d="
M210.014175,849.004822 
	C210.016037,835.993408 210.017883,822.981995 210.307037,809.482056 
	C210.786407,808.980652 210.978485,808.967834 211.170547,808.955017 
	C211.197540,822.302307 211.224533,835.649536 211.220734,849.457703 
	C211.001923,849.931030 210.813904,849.943481 210.334839,849.720215 
	C210.043793,849.484436 210.014175,849.004822 210.014175,849.004822 
z"/>
<path fill="#4E2DAF" opacity="1.000000" stroke="none" 
	d="
M316.657593,783.105042 
	C315.288940,788.178223 313.650085,793.482666 311.674347,798.866699 
	C313.020752,793.742981 314.704071,788.539673 316.657593,783.105042 
z"/>
<path fill="#4E2DAF" opacity="1.000000" stroke="none" 
	d="
M676.493530,841.959290 
	C680.478516,838.941528 685.114380,839.441101 689.900146,841.531311 
	C685.640015,841.950073 681.296570,841.981628 676.493530,841.959290 
z"/>
<path fill="#643FCC" opacity="1.000000" stroke="none" 
	d="
M483.603943,130.917419 
	C479.798004,133.111069 475.618988,135.339737 471.240112,137.320816 
	C475.103790,135.032974 479.167328,132.992706 483.603943,130.917419 
z"/>
<path fill="#4E2DAF" opacity="1.000000" stroke="none" 
	d="
M474.044434,774.499878 
	C474.286682,781.149841 474.479767,788.263794 474.379211,795.670349 
	C474.055450,788.963257 474.025360,781.963501 474.044434,774.499878 
z"/>
<path fill="#643FCC" opacity="1.000000" stroke="none" 
	d="
M735.145447,267.582764 
	C733.777527,264.233459 732.405090,260.474487 731.041504,256.306915 
	C732.413818,259.656586 733.777344,263.414825 735.145447,267.582764 
z"/>
<path fill="#4E2DAF" opacity="1.000000" stroke="none" 
	d="
M474.038269,817.497131 
	C474.281769,822.813477 474.476105,828.593140 474.379730,834.666992 
	C474.055725,829.294312 474.022430,823.627380 474.038269,817.497131 
z"/>
<path fill="#4E2DAF" opacity="1.000000" stroke="none" 
	d="
M714.494446,841.968506 
	C719.813965,841.722534 725.597107,841.525696 731.672180,841.622803 
	C726.295471,841.950317 720.626709,841.983948 714.494446,841.968506 
z"/>
<path fill="#4E2DAF" opacity="1.000000" stroke="none" 
	d="
M598.958252,857.501953 
	C598.714844,852.519165 598.520508,847.073486 598.616760,841.334106 
	C598.940674,846.373291 598.973999,851.706177 598.958252,857.501953 
z"/>
<path fill="#4E2DAF" opacity="1.000000" stroke="none" 
	d="
M783.291504,852.543823 
	C781.927002,849.510620 780.472595,846.097778 779.048462,842.274414 
	C780.453064,845.297302 781.827332,848.730713 783.291504,852.543823 
z"/>
<path fill="#643FCC" opacity="1.000000" stroke="none" 
	d="
M280.065491,292.507477 
	C280.296326,295.824310 280.481354,299.595490 280.385040,303.656189 
	C280.075684,300.284424 280.047729,296.623138 280.065491,292.507477 
z"/>
<path fill="#4E2DAF" opacity="1.000000" stroke="none" 
	d="
M393.394531,878.113403 
	C394.811188,877.125854 396.579285,876.078796 398.720428,875.038574 
	C397.310974,876.048157 395.528473,877.051025 393.394531,878.113403 
z"/>
<path fill="#643FCC" opacity="1.000000" stroke="none" 
	d="
M280.065796,392.495605 
	C280.292450,394.830688 280.473999,397.608307 280.384644,400.663269 
	C280.082733,398.273132 280.051727,395.605682 280.065796,392.495605 
z"/>
<path fill="#4E2DAF" opacity="1.000000" stroke="none" 
	d="
M474.064484,753.426147 
	C474.124908,752.986145 474.609711,753.032227 474.851990,753.065063 
	C474.949127,755.535034 474.804016,757.972046 474.377228,760.683899 
	C474.065063,758.594482 474.034546,756.230286 474.064484,753.426147 
z"/>
<path fill="#4E2DAF" opacity="1.000000" stroke="none" 
	d="
M311.052399,800.396362 
	C311.086487,801.627258 311.039948,803.205017 310.668213,804.863892 
	C310.552612,803.544434 310.762177,802.143860 311.052399,800.396362 
z"/>
<path fill="#4E2DAF" opacity="1.000000" stroke="none" 
	d="
M697.462402,841.968933 
	C699.175720,841.733032 701.320374,841.547424 703.715576,841.641479 
	C701.942017,841.953857 699.917786,841.986511 697.462402,841.968933 
z"/>
<path fill="#4E2DAF" opacity="1.000000" stroke="none" 
	d="
M598.956543,776.533569 
	C598.724609,774.826965 598.540894,772.689758 598.629761,770.297607 
	C598.936462,772.062744 598.970581,774.082825 598.956543,776.533569 
z"/>
<path fill="#643FCC" opacity="1.000000" stroke="none" 
	d="
M280.067291,418.481750 
	C280.287964,420.176086 280.464447,422.299286 280.377747,424.681458 
	C280.084076,422.930481 280.053589,420.920532 280.067291,418.481750 
z"/>
<path fill="#643FCC" opacity="1.000000" stroke="none" 
	d="
M280.065887,459.481995 
	C280.288025,461.177979 280.464630,463.302795 280.375732,465.685028 
	C280.080292,463.931885 280.050323,461.921356 280.065887,459.481995 
z"/>
<path fill="#4E2DAF" opacity="1.000000" stroke="none" 
	d="
M321.671570,774.088684 
	C321.438599,775.166870 320.932983,776.441101 320.059082,777.775330 
	C320.260223,776.651794 320.829590,775.468262 321.671570,774.088684 
z"/>
<path fill="#643FCC" opacity="1.000000" stroke="none" 
	d="
M736.600525,271.608704 
	C736.104858,270.820953 735.566528,269.713898 735.051880,268.240204 
	C735.569641,269.012207 736.063721,270.150818 736.600525,271.608704 
z"/>
<path fill="#4E2DAF" opacity="1.000000" stroke="none" 
	d="
M323.779175,771.112671 
	C323.559387,771.917053 323.087891,772.912231 322.254517,773.928711 
	C322.437561,773.067871 322.982483,772.185669 323.779175,771.112671 
z"/>
<path fill="#643FCC" opacity="1.000000" stroke="none" 
	d="
M280.062073,370.456543 
	C280.278564,371.531403 280.450256,373.012573 280.364532,374.719421 
	C280.077179,373.584381 280.047241,372.223633 280.062073,370.456543 
z"/>
<path fill="#4E2DAF" opacity="1.000000" stroke="none" 
	d="
M474.039246,802.442261 
	C474.265167,803.526917 474.442383,805.020264 474.354889,806.737488 
	C474.056946,805.591187 474.023712,804.221130 474.039246,802.442261 
z"/>
<path fill="#4E2DAF" opacity="1.000000" stroke="none" 
	d="
M335.988953,874.390137 
	C336.853333,874.534058 337.880981,874.951355 338.930084,875.736572 
	C338.018402,875.624207 337.085297,875.143860 335.988953,874.390137 
z"/>
<path fill="#4E2DAF" opacity="1.000000" stroke="none" 
	d="
M598.947388,759.654419 
	C598.411194,759.668030 597.922791,759.356140 597.434448,759.044312 
	C597.731323,758.720154 598.028198,758.395935 598.612000,758.045959 
	C598.931030,758.456421 598.963074,758.892700 598.947388,759.654419 
z"/>
<path fill="#4E2DAF" opacity="1.000000" stroke="none" 
	d="
M399.331238,875.004150 
	C399.551727,874.437378 400.063202,873.787231 400.930359,873.195190 
	C400.731445,873.809143 400.176819,874.364929 399.331238,875.004150 
z"/>
<path fill="#643FCC" opacity="1.000000" stroke="none" 
	d="
M728.011597,249.690872 
	C727.541687,249.432877 727.014221,248.894714 726.722168,248.190338 
	C727.289734,248.486313 727.621887,248.948517 728.011597,249.690872 
z"/>
<path fill="#4E2DAF" opacity="1.000000" stroke="none" 
	d="
M598.954041,829.600708 
	C598.742188,829.105164 598.579285,828.245422 598.661133,827.212280 
	C598.938232,827.771484 598.970642,828.504028 598.954041,829.600708 
z"/>
<path fill="#643FCC" opacity="1.000000" stroke="none" 
	d="
M280.066681,444.410950 
	C280.268799,444.898773 280.426239,445.747162 280.347351,446.770752 
	C280.081360,446.221130 280.051666,445.496338 280.066681,444.410950 
z"/>
<path fill="#4E2DAF" opacity="1.000000" stroke="none" 
	d="
M339.123199,876.309082 
	C339.803284,876.240784 340.710541,876.428711 341.748596,876.953491 
	C341.036438,877.048706 340.193390,876.807007 339.123199,876.309082 
z"/>
<path fill="#3C18A6" opacity="1.000000" stroke="none" 
	d="
M753.776978,876.394897 
	C754.139099,876.812317 754.569519,877.578796 754.969421,878.711426 
	C754.574402,878.299683 754.209839,877.521851 753.776978,876.394897 
z"/>
<path fill="#4E2DAF" opacity="1.000000" stroke="none" 
	d="
M598.957153,864.601929 
	C598.744629,864.106018 598.580627,863.245667 598.661804,862.211853 
	C598.939941,862.771423 598.972839,863.504517 598.957153,864.601929 
z"/>
<path fill="#643FCC" opacity="1.000000" stroke="none" 
	d="
M280.063354,378.409302 
	C280.266510,378.897430 280.425537,379.746582 280.347565,380.771057 
	C280.080109,380.221039 280.049652,379.495636 280.063354,378.409302 
z"/>
<path fill="#643FCC" opacity="1.000000" stroke="none" 
	d="
M729.073608,251.686218 
	C728.772034,251.508774 728.427551,251.032928 728.056641,250.239227 
	C728.363770,250.410172 728.697266,250.899002 729.073608,251.686218 
z"/>
<path fill="#643FCC" opacity="1.000000" stroke="none" 
	d="
M730.093384,253.677643 
	C729.786255,253.501740 729.434937,253.022385 729.064331,252.220322 
	C729.379761,252.389801 729.714539,252.881989 730.093384,253.677643 
z"/>
<path fill="#4E2DAF" opacity="1.000000" stroke="none" 
	d="
M402.493286,872.333313 
	C402.616913,871.892761 403.060760,871.472900 403.843445,871.051147 
	C403.726013,871.484131 403.269745,871.919067 402.493286,872.333313 
z"/>
<path fill="#643FCC" opacity="1.000000" stroke="none" 
	d="
M731.085327,255.677399 
	C730.771301,255.501709 730.421082,255.018646 730.064026,254.211868 
	C730.387817,254.382095 730.718506,254.876038 731.085327,255.677399 
z"/>
<path fill="#4E2DAF" opacity="1.000000" stroke="none" 
	d="
M318.675476,779.047974 
	C318.758698,779.478333 318.590790,780.091064 318.120972,780.834412 
	C318.020782,780.386780 318.222565,779.808655 318.675476,779.047974 
z"/>
<path fill="#4E2DAF" opacity="1.000000" stroke="none" 
	d="
M317.651978,781.025330 
	C317.755280,781.466309 317.599670,782.083374 317.145203,782.836304 
	C317.028595,782.381958 317.210846,781.791687 317.651978,781.025330 
z"/>
<path fill="#4E2DAF" opacity="1.000000" stroke="none" 
	d="
M792.377991,880.269409 
	C792.168823,879.959717 792.302856,879.649048 792.633545,879.172302 
	C792.793823,879.427002 792.757568,879.847778 792.377991,880.269409 
z"/>
<path fill="#4E2DAF" opacity="1.000000" stroke="none" 
	d="
M755.622803,879.000488 
	C755.940430,879.162048 755.947632,879.370667 755.957336,879.892334 
	C755.618164,880.081360 755.276428,879.957153 754.830444,879.553223 
	C754.921448,879.198120 755.116821,879.122803 755.622803,879.000488 
z"/>
<path fill="#4E2DAF" opacity="1.000000" stroke="none" 
	d="
M334.814240,873.432861 
	C335.096863,873.306885 335.431213,873.473206 335.851074,873.918640 
	C335.579681,874.040222 335.222839,873.882690 334.814240,873.432861 
z"/>
<path fill="#4E2DAF" opacity="1.000000" stroke="none" 
	d="
M401.467163,873.228882 
	C401.324585,872.938110 401.492676,872.598755 401.955536,872.210327 
	C402.092804,872.500916 401.935303,872.840576 401.467163,873.228882 
z"/>
<path fill="#4E2DAF" opacity="1.000000" stroke="none" 
	d="
M334.151764,873.155090 
	C334.264313,872.985046 334.531952,872.960022 334.761902,873.156616 
	C334.724243,873.378174 334.306854,873.300110 334.151764,873.155090 
z"/>
<path fill="#4E2DAF" opacity="1.000000" stroke="none" 
	d="
M341.781921,877.470947 
	C342.101227,877.312500 342.435791,877.460938 342.863800,877.879150 
	C342.570557,878.025269 342.183899,877.901550 341.781921,877.470947 
z"/>
<path fill="#643FCC" opacity="1.000000" stroke="none" 
	d="
M280.070068,428.268585 
	C280.212982,428.294434 280.320007,428.550842 280.266235,428.883728 
	C280.105408,428.960266 280.034210,428.499115 280.070068,428.268585 
z"/>
<path fill="#4E2DAF" opacity="1.000000" stroke="none" 
	d="
M319.560791,777.814941 
	C319.699127,778.101929 319.544922,778.435852 319.120453,778.863403 
	C318.989563,778.592041 319.128876,778.226990 319.560791,777.814941 
z"/>
<path fill="#5A3BB3" opacity="1.000000" stroke="none" 
	d="
M211.337402,808.767273 
	C210.978485,808.967834 210.786407,808.980652 210.306580,809.015747 
	C210.346527,808.757019 210.674240,808.476013 211.335938,808.150146 
	C211.614670,808.263367 211.559448,808.421448 211.337402,808.767273 
z"/>
<path fill="#4E2DAF" opacity="1.000000" stroke="none" 
	d="
M737.262695,841.955872 
	C737.291565,841.800537 737.557129,841.688293 737.898071,841.746460 
	C737.973511,841.916931 737.499390,841.998901 737.262695,841.955872 
z"/>
<path fill="#4E2DAF" opacity="1.000000" stroke="none" 
	d="
M740.261475,841.956421 
	C740.287231,841.800232 740.549622,841.684326 740.890625,841.736084 
	C740.969177,841.903748 740.498169,841.996582 740.261475,841.956421 
z"/>
<path fill="#FEFDFD" opacity="1.000000" stroke="none" 
	d="
M516.918335,218.579529 
	C527.222351,223.494186 537.766357,227.966583 547.787231,233.403137 
	C583.512329,252.784851 619.125488,272.375763 654.640503,292.140015 
	C668.199707,299.685791 674.305115,312.211700 676.078491,328.089172 
	C676.154053,367.302948 676.167114,405.629913 676.180176,443.956848 
	C674.368958,458.287903 667.240479,469.012695 654.703674,476.295776 
	C615.621704,498.999908 576.585693,521.783264 537.551270,544.569031 
	C519.646912,555.020447 501.365936,555.376587 483.545715,545.199280 
	C443.434784,522.291565 403.625275,498.855957 363.698792,475.625427 
	C362.983337,475.209167 362.338684,474.671112 361.149628,473.933838 
	C360.638245,473.677765 360.161133,473.713745 360.161133,473.713745 
	C360.161133,473.713745 360.028412,473.813141 360.088989,473.568237 
	C359.780975,473.168701 359.412415,473.014038 359.043854,472.859375 
	C359.043854,472.859375 359.028198,472.958801 359.031647,472.671906 
	C358.703156,472.212708 358.371185,472.040375 358.039246,471.868073 
	C358.039246,471.868073 358.005493,471.954071 357.994019,471.677032 
	C357.675781,471.159210 357.368988,470.918457 357.062225,470.677673 
	C356.642426,470.153717 356.222595,469.629761 355.411407,468.765594 
	C354.686493,468.252014 354.352905,468.078674 354.019348,467.905304 
	C354.019348,467.905304 354.051971,467.996948 354.043335,467.684509 
	C353.705505,467.203827 353.376312,467.035583 353.047150,466.867310 
	C353.047150,466.867310 353.037842,466.961731 353.057678,466.642365 
	C352.734955,466.175690 352.392365,466.028351 352.049774,465.881012 
	C352.049774,465.881012 352.067596,465.981812 352.182068,465.646088 
	C351.887238,464.831909 351.477966,464.353485 351.068665,463.875061 
	C351.068695,463.875031 351.047577,463.963898 351.020721,463.678589 
	C350.676880,463.223541 350.359863,463.053741 350.042847,462.883972 
	C350.042847,462.883972 350.054413,462.985535 350.124634,462.653381 
	C349.821259,461.837952 349.447723,461.354736 349.074158,460.871490 
	C349.074158,460.871490 349.047211,460.968933 349.053467,460.669434 
	C348.720825,459.880005 348.381989,459.390137 348.043152,458.900269 
	C348.043121,458.900269 348.026215,458.980835 348.022400,458.682281 
	C347.692963,457.889618 347.367340,457.395508 347.041748,456.901398 
	C347.041748,456.901398 347.029907,456.980316 347.020386,456.598663 
	C345.684937,452.097626 344.358978,447.978210 343.032990,443.858826 
	C343.032990,443.858826 343.018646,443.386932 343.000061,442.750000 
	C343.090546,439.797882 343.288239,437.482941 343.295471,435.167419 
	C343.413269,397.471344 343.506958,359.775208 343.606079,322.079071 
	C343.683533,321.889252 343.760986,321.699432 343.894165,320.820770 
	C344.141357,319.103760 344.332825,318.075623 344.524292,317.047485 
	C348.448090,306.186218 355.210052,298.183472 365.619690,292.467529 
	C403.702423,271.556335 441.480865,250.090973 479.875549,228.489410 
	C480.951263,227.777298 481.525360,227.410110 482.099487,227.042938 
	C482.099487,227.042938 482.018677,227.025925 482.308838,227.011383 
	C483.088745,226.672806 483.578491,226.348770 484.068237,226.024734 
	C484.068237,226.024750 484.012634,225.996017 484.330566,225.954163 
	C484.959961,225.618896 485.271454,225.325470 485.582947,225.032043 
	C485.582947,225.032028 485.797638,225.184769 486.247253,225.022888 
	C489.832184,223.259354 492.967499,221.657715 496.102844,220.056091 
	C496.102844,220.056091 496.012024,220.056747 496.428955,220.066711 
	C503.536682,219.577637 510.227509,219.078583 516.918335,218.579529 
M422.026489,382.949219 
	C422.026489,382.949219 422.115356,382.946777 421.770935,382.426117 
	C421.186066,382.233978 420.601166,382.041840 420.035431,381.954803 
	C420.035431,381.954803 420.135956,381.918610 419.826813,381.364716 
	C418.889160,380.897156 417.951477,380.429626 417.010406,380.008789 
	C417.010406,380.008789 417.048737,379.981842 416.508545,379.467621 
	C415.538513,378.961639 414.568481,378.455688 413.116730,377.698456 
	C413.116730,395.506012 413.116730,412.722504 412.981445,430.650146 
	C413.071442,431.119568 413.161438,431.589020 413.216492,432.789429 
	C413.790009,434.549744 414.363525,436.310059 414.902130,437.988708 
	C414.902130,437.988708 414.823456,438.029877 414.656281,438.740570 
	C415.082397,439.517334 415.508545,440.294128 415.837341,440.996033 
	C415.837341,440.996033 415.757477,441.089294 415.649353,441.731201 
	C415.803009,442.137085 415.956665,442.542938 416.149170,443.650635 
	C419.378143,450.779266 424.188110,456.599396 430.470367,461.269440 
	C443.243408,470.764587 457.800232,476.116241 473.851837,480.002319 
	C490.632660,484.194336 507.685547,485.211578 524.838867,483.696045 
	C531.340515,483.121582 537.731567,481.294922 544.596863,480.071655 
	C544.596863,480.071655 545.011414,479.977722 545.834534,480.102112 
	C552.923279,477.749908 560.012085,475.397705 567.016418,473.030304 
	C567.016418,473.030304 567.011780,473.115906 567.628113,473.038574 
	C568.122559,472.708679 568.617004,472.378784 569.018066,472.039337 
	C569.018066,472.039337 569.021240,472.133240 569.702026,472.050385 
	C570.845337,471.391388 571.988586,470.732422 573.035461,470.064575 
	C573.035461,470.064575 573.048401,470.160461 573.513245,470.064484 
	C573.513245,470.064484 573.949341,469.877258 574.639954,469.799469 
	C578.248657,467.479462 582.056335,465.415131 585.428406,462.791077 
	C595.238953,455.156647 602.495789,445.834595 603.984924,432.013031 
	C604.007080,415.458923 604.045898,398.904816 604.002747,382.350861 
	C604.000549,381.511871 603.291870,380.674744 602.230225,380.014160 
	C576.745117,394.359711 551.319824,408.813721 525.716553,422.945160 
	C521.392761,425.331604 516.412476,426.941650 511.538910,427.821930 
	C504.250000,429.138489 498.216217,424.919586 492.214142,421.620972 
	C469.068329,408.900543 446.019012,396.004547 422.509766,382.953094 
	C422.509766,382.953094 422.040558,382.861450 422.026489,382.949219 
M531.511597,260.980316 
	C527.728516,258.890869 523.941467,256.808563 520.163208,254.710434 
	C513.196838,250.841919 506.329102,250.866531 499.311157,254.781097 
	C460.843414,276.238159 422.345520,297.641327 383.827240,319.007568 
	C378.775452,321.809845 375.405731,325.768005 375.458191,331.615082 
	C375.509613,337.352020 379.230225,340.822327 384.050903,343.509033 
	C421.803741,364.550171 459.662231,385.410492 497.119720,406.966736 
	C506.372375,412.291473 514.693542,411.175873 522.787903,406.731110 
	C560.808777,385.853271 598.582764,364.526123 636.483276,343.428223 
	C641.426086,340.676727 645.196228,337.349518 645.181274,331.172302 
	C645.166443,325.029572 641.480469,321.569458 636.531799,318.848846 
	C601.721558,299.711426 566.935242,280.530579 531.511597,260.980316 
z"/>
<path fill="#643FCC" opacity="1.000000" stroke="none" 
	d="
M343.246368,322.200317 
	C343.506958,359.775208 343.413269,397.471344 343.295471,435.167419 
	C343.288239,437.482941 343.090546,439.797882 342.926453,442.525726 
	C342.579956,441.361664 342.036133,439.785309 342.034058,438.208221 
	C341.985168,401.135529 341.983948,364.062744 342.031403,326.990051 
	C342.033386,325.433502 342.588959,323.877686 343.246368,322.200317 
z"/>
<path fill="#643FCC" opacity="1.000000" stroke="none" 
	d="
M676.560425,443.856812 
	C676.167114,405.629913 676.154053,367.302948 676.171143,328.511658 
	C676.796631,329.384521 677.908569,330.720398 677.912048,332.059174 
	C678.006165,368.095276 677.996643,404.131683 677.942261,440.167969 
	C677.940430,441.364746 677.289246,442.560547 676.560425,443.856812 
z"/>
<path fill="#643FCC" opacity="1.000000" stroke="none" 
	d="
M516.818542,218.243439 
	C510.227509,219.078583 503.536682,219.577637 496.436340,220.111526 
	C496.547852,219.538620 496.971527,218.541916 497.605072,218.383316 
	C503.927246,216.800690 510.280609,215.199463 516.818542,218.243439 
z"/>
<path fill="#643FCC" opacity="1.000000" stroke="none" 
	d="
M343.022339,444.296143 
	C344.358978,447.978210 345.684937,452.097626 347.060303,456.599121 
	C342.955536,453.831543 343.353424,449.158752 343.022339,444.296143 
z"/>
<path fill="#643FCC" opacity="1.000000" stroke="none" 
	d="
M495.702728,220.045593 
	C492.967499,221.657715 489.832184,223.259354 486.346497,224.936249 
	C489.098328,223.352707 492.200470,221.693909 495.702728,220.045593 
z"/>
<path fill="#643FCC" opacity="1.000000" stroke="none" 
	d="
M344.190186,317.156677 
	C344.332825,318.075623 344.141357,319.103760 343.864380,320.514709 
	C343.804657,319.686951 343.830383,318.476410 344.190186,317.156677 
z"/>
<path fill="#643FCC" opacity="1.000000" stroke="none" 
	d="
M349.070465,461.196960 
	C349.447723,461.354736 349.821259,461.837952 350.174225,462.641052 
	C349.791321,462.481445 349.429047,462.001953 349.070465,461.196960 
z"/>
<path fill="#643FCC" opacity="1.000000" stroke="none" 
	d="
M348.062683,459.222412 
	C348.381989,459.390137 348.720825,459.880005 349.103760,460.674286 
	C348.792603,460.500641 348.437378,460.022614 348.062683,459.222412 
z"/>
<path fill="#643FCC" opacity="1.000000" stroke="none" 
	d="
M351.068604,464.199738 
	C351.477966,464.353485 351.887238,464.831909 352.230530,465.629639 
	C351.799194,465.474060 351.433868,464.999237 351.068604,464.199738 
z"/>
<path fill="#643FCC" opacity="1.000000" stroke="none" 
	d="
M481.743225,227.067505 
	C481.525360,227.410110 480.951263,227.777298 480.017609,228.203369 
	C480.234375,227.872192 480.810669,227.482117 481.743225,227.067505 
z"/>
<path fill="#643FCC" opacity="1.000000" stroke="none" 
	d="
M483.755188,226.058014 
	C483.578491,226.348770 483.088745,226.672806 482.305237,227.052521 
	C482.488373,226.769241 482.965302,226.430283 483.755188,226.058014 
z"/>
<path fill="#643FCC" opacity="1.000000" stroke="none" 
	d="
M347.063629,457.219879 
	C347.367340,457.395508 347.692963,457.889618 348.063416,458.685760 
	C347.767334,458.504639 347.426422,458.021484 347.063629,457.219879 
z"/>
<path fill="#643FCC" opacity="1.000000" stroke="none" 
	d="
M360.168701,473.925812 
	C360.161133,473.713745 360.638245,473.677765 360.823364,473.829254 
	C360.731110,474.033142 360.453674,474.085510 360.168701,473.925812 
z"/>
<path fill="#643FCC" opacity="1.000000" stroke="none" 
	d="
M359.139099,473.115051 
	C359.412415,473.014038 359.780975,473.168701 360.138916,473.634460 
	C359.830261,473.753937 359.532288,473.562286 359.139099,473.115051 
z"/>
<path fill="#643FCC" opacity="1.000000" stroke="none" 
	d="
M485.261658,225.109818 
	C485.271454,225.325470 484.959961,225.618896 484.328674,225.985428 
	C484.319366,225.768219 484.629883,225.477905 485.261658,225.109818 
z"/>
<path fill="#643FCC" opacity="1.000000" stroke="none" 
	d="
M358.133057,472.125183 
	C358.371185,472.040375 358.703156,472.212708 359.081970,472.672333 
	C358.828186,472.767212 358.527527,472.574768 358.133057,472.125183 
z"/>
<path fill="#643FCC" opacity="1.000000" stroke="none" 
	d="
M357.141174,470.961365 
	C357.368988,470.918457 357.675781,471.159210 358.038269,471.690216 
	C357.802734,471.735321 357.511444,471.490204 357.141174,470.961365 
z"/>
<path fill="#643FCC" opacity="1.000000" stroke="none" 
	d="
M354.152954,468.165344 
	C354.352905,468.078674 354.686493,468.252014 355.168610,468.682251 
	C354.973633,468.767853 354.630127,468.596619 354.152954,468.165344 
z"/>
<path fill="#643FCC" opacity="1.000000" stroke="none" 
	d="
M353.140869,467.125366 
	C353.376312,467.035583 353.705505,467.203827 354.087830,467.664856 
	C353.838837,467.766205 353.536743,467.574799 353.140869,467.125366 
z"/>
<path fill="#643FCC" opacity="1.000000" stroke="none" 
	d="
M352.146820,466.132568 
	C352.392365,466.028351 352.734955,466.175690 353.104980,466.638702 
	C352.836243,466.764313 352.540039,466.574219 352.146820,466.132568 
z"/>
<path fill="#643FCC" opacity="1.000000" stroke="none" 
	d="
M350.140656,463.138977 
	C350.359863,463.053741 350.676880,463.223541 351.066376,463.679993 
	C350.838745,463.775787 350.538605,463.584900 350.140656,463.138977 
z"/>
<path fill="#FBFAFD" opacity="1.000000" stroke="none" 
	d="
M733.009521,810.996704 
	C732.993835,811.416626 732.978271,811.836548 732.507935,812.587158 
	C716.369568,812.946533 700.685852,812.975159 685.002136,813.003784 
	C685.620605,810.228699 686.239014,807.453552 686.992126,803.972778 
	C687.474304,801.853821 687.821838,800.440491 688.169312,799.027161 
	C688.169312,799.027161 688.058777,799.031311 688.374878,798.882080 
	C691.199036,791.175842 693.707153,783.618774 696.215271,776.061768 
	C696.215271,776.061768 696.109863,776.021484 696.387573,775.855408 
	C697.935669,771.824219 699.206055,767.959106 700.476440,764.094055 
	C703.252747,756.243958 706.028992,748.393860 709.252197,739.279907 
	C713.431152,752.426636 717.263123,764.481812 721.435303,777.183044 
	C722.814331,780.598267 723.853210,783.367432 724.892090,786.136536 
	C724.892090,786.136536 724.876648,786.014832 724.847046,786.408813 
	C725.509521,788.580322 726.201538,790.357849 726.893555,792.135315 
	C726.893555,792.135315 726.878967,792.011719 726.840332,792.376282 
	C727.168152,793.537659 727.534607,794.334473 727.901062,795.131287 
	C727.901062,795.131287 727.887451,795.008911 727.848511,795.372681 
	C728.173340,796.535950 728.537048,797.335449 728.900757,798.134949 
	C728.900757,798.134949 728.893677,798.012573 728.856934,798.372559 
	C729.181824,799.531067 729.543396,800.329590 729.904907,801.128113 
	C729.904907,801.128113 729.889404,801.009705 729.862305,801.401489 
	C730.524414,803.571716 731.213623,805.350220 731.902832,807.128662 
	C731.902832,807.128662 731.886475,807.008118 731.852783,807.372803 
	C732.178345,808.536743 732.537537,809.335999 732.896667,810.135193 
	C732.896667,810.135193 732.823486,810.037415 732.803284,810.312500 
	C732.783081,810.587646 733.009521,810.996704 733.009521,810.996704 
z"/>
<path fill="#3C18A6" opacity="1.000000" stroke="none" 
	d="
M685.288696,813.308228 
	C700.685852,812.975159 716.369568,812.946533 732.520996,812.902344 
	C732.286682,813.246826 731.583435,813.922974 730.882629,813.920349 
	C715.780029,813.863525 700.677734,813.730774 685.288696,813.308228 
z"/>
<path fill="#4E2DAF" opacity="1.000000" stroke="none" 
	d="
M695.857727,776.163696 
	C693.707153,783.618774 691.199036,791.175842 688.386963,798.936035 
	C690.555420,791.514648 693.027832,783.890076 695.857727,776.163696 
z"/>
<path fill="#4E2DAF" opacity="1.000000" stroke="none" 
	d="
M700.072693,764.104004 
	C699.206055,767.959106 697.935669,771.824219 696.378296,775.911072 
	C697.283936,772.126526 698.476440,768.120239 700.072693,764.104004 
z"/>
<path fill="#4E2DAF" opacity="1.000000" stroke="none" 
	d="
M724.927490,785.727112 
	C723.853210,783.367432 722.814331,780.598267 721.668457,777.451904 
	C722.695312,779.822327 723.829102,782.570007 724.927490,785.727112 
z"/>
<path fill="#4E2DAF" opacity="1.000000" stroke="none" 
	d="
M731.931030,806.735840 
	C731.213623,805.350220 730.524414,803.571716 729.805359,801.419434 
	C730.503418,802.811462 731.231323,804.577209 731.931030,806.735840 
z"/>
<path fill="#4E2DAF" opacity="1.000000" stroke="none" 
	d="
M726.927429,791.741943 
	C726.201538,790.357849 725.509521,788.580322 724.788940,786.428345 
	C725.494019,787.818665 726.227661,789.583618 726.927429,791.741943 
z"/>
<path fill="#4E2DAF" opacity="1.000000" stroke="none" 
	d="
M687.860962,799.169678 
	C687.821838,800.440491 687.474304,801.853821 687.002686,803.612061 
	C687.103271,802.408630 687.327942,800.860413 687.860962,799.169678 
z"/>
<path fill="#4E2DAF" opacity="1.000000" stroke="none" 
	d="
M732.924316,809.768066 
	C732.537537,809.335999 732.178345,808.536743 731.794861,807.391235 
	C732.164368,807.830261 732.558167,808.615601 732.924316,809.768066 
z"/>
<path fill="#4E2DAF" opacity="1.000000" stroke="none" 
	d="
M729.928711,800.761780 
	C729.543396,800.329590 729.181824,799.531067 728.797485,798.387268 
	C729.167236,798.826477 729.559814,799.610962 729.928711,800.761780 
z"/>
<path fill="#4E2DAF" opacity="1.000000" stroke="none" 
	d="
M727.926208,794.764160 
	C727.534607,794.334473 727.168152,793.537659 726.781006,792.395020 
	C727.157288,792.831787 727.554321,793.614441 727.926208,794.764160 
z"/>
<path fill="#4E2DAF" opacity="1.000000" stroke="none" 
	d="
M728.926270,797.768005 
	C728.537048,797.335449 728.173340,796.535950 727.789490,795.390137 
	C728.163513,795.829529 728.557678,796.615295 728.926270,797.768005 
z"/>
<path fill="#4E2DAF" opacity="1.000000" stroke="none" 
	d="
M756.868164,878.882568 
	C756.942261,879.042542 756.455383,879.017212 756.214355,878.979614 
	C756.246887,878.868896 756.520508,878.795715 756.868164,878.882568 
z"/>
<path fill="#4E2DAF" opacity="1.000000" stroke="none" 
	d="
M733.191406,810.895020 
	C733.009521,810.996704 732.783081,810.587646 732.759521,810.355103 
	C732.948425,810.346191 733.160889,810.569824 733.191406,810.895020 
z"/>
<path fill="#FEFDFD" opacity="1.000000" stroke="none" 
	d="
M392.208557,779.295715 
	C392.956116,779.828125 393.703705,780.360535 394.938171,781.130249 
	C395.909546,781.640137 396.394012,781.912659 396.878510,782.185120 
	C396.878510,782.185120 396.937714,782.089844 397.036011,782.364014 
	C397.655487,782.896606 398.176697,783.154968 398.697937,783.413330 
	C398.697937,783.413330 398.788757,783.310486 398.786804,783.581909 
	C399.109711,784.014709 399.434601,784.176086 399.759521,784.337402 
	C399.759521,784.337402 399.803589,784.200684 399.809692,784.495178 
	C400.132812,784.968811 400.449860,785.148010 400.766907,785.327148 
	C400.766907,785.327148 400.794250,785.186646 400.800171,785.488037 
	C401.117249,785.971069 401.428375,786.152771 401.739502,786.334473 
	C401.739532,786.334412 401.761993,786.179871 401.749329,786.508179 
	C402.142914,787.272339 402.549194,787.708252 402.955444,788.144226 
	C402.937897,788.456909 403.046143,788.717285 403.586029,789.288330 
	C404.244843,790.131348 404.597839,790.611511 404.950836,791.091675 
	C404.950836,791.091675 404.989868,791.021423 404.972778,791.385864 
	C405.937500,793.546509 406.919281,795.342651 407.901062,797.138855 
	C407.901031,797.138855 407.914703,797.044983 407.900513,797.463379 
	C410.709442,807.465332 410.666138,817.186951 409.287903,826.972839 
	C407.236755,836.033813 403.362701,843.945618 394.818909,849.564331 
	C393.875122,850.270081 393.387756,850.612915 392.900391,850.955750 
	C392.900391,850.955750 392.975006,850.980408 392.595062,851.018555 
	C384.828979,854.537781 377.142517,855.872437 369.049042,854.297668 
	C357.132294,851.611084 350.140350,844.010193 346.964600,832.434814 
	C343.659851,820.389038 343.377960,808.287720 348.178223,796.762268 
	C350.448242,791.311829 354.971313,786.799805 358.947327,781.473328 
	C359.807129,780.732849 360.193207,780.381653 360.579285,780.030457 
	C360.579285,780.030457 360.747925,780.210205 361.137390,780.084106 
	C361.761139,779.656677 361.995422,779.355408 362.229706,779.054138 
	C362.229706,779.054138 362.643738,779.063782 363.138916,779.014648 
	C364.135376,778.670898 364.636658,778.376160 365.137939,778.081421 
	C365.137939,778.081421 365.024506,778.067566 365.453857,778.084778 
	C374.768494,776.069824 383.541901,776.505493 392.208557,779.295715 
z"/>
<path fill="#5A3BB3" opacity="1.000000" stroke="none" 
	d="
M409.645142,826.876099 
	C410.666138,817.186951 410.709442,807.465332 407.853699,797.470825 
	C409.064423,800.754333 411.208466,804.415161 411.347992,808.150818 
	C411.578979,814.334961 410.518616,820.567322 409.645142,826.876099 
z"/>
<path fill="#4E2DAF" opacity="1.000000" stroke="none" 
	d="
M392.031128,778.938599 
	C383.541901,776.505493 374.768494,776.069824 365.457153,778.141846 
	C370.043793,773.897400 376.093079,774.737305 381.828888,775.291504 
	C385.244568,775.621460 388.516937,777.434937 392.031128,778.938599 
z"/>
<path fill="#4E2DAF" opacity="1.000000" stroke="none" 
	d="
M369.159180,854.670288 
	C377.142517,855.872437 384.828979,854.537781 392.585754,850.980347 
	C390.529144,852.262695 388.203369,854.504150 385.653625,854.797302 
	C380.254120,855.417847 374.737793,855.021973 369.159180,854.670288 
z"/>
<path fill="#5A3BB3" opacity="1.000000" stroke="none" 
	d="
M407.930969,796.739197 
	C406.919281,795.342651 405.937500,793.546509 404.934265,791.397217 
	C405.928802,792.809204 406.944855,794.574402 407.930969,796.739197 
z"/>
<path fill="#5A3BB3" opacity="1.000000" stroke="none" 
	d="
M396.902588,781.876465 
	C396.394012,781.912659 395.909546,781.640137 395.215149,781.177490 
	C395.645691,781.180786 396.286163,781.374268 396.902588,781.876465 
z"/>
<path fill="#4E2DAF" opacity="1.000000" stroke="none" 
	d="
M393.227966,850.931580 
	C393.387756,850.612915 393.875122,850.270081 394.655823,849.849243 
	C394.484589,850.149963 394.020050,850.528687 393.227966,850.931580 
z"/>
<path fill="#4E2DAF" opacity="1.000000" stroke="none" 
	d="
M364.831848,778.081238 
	C364.636658,778.376160 364.135376,778.670898 363.332184,778.940308 
	C363.528778,778.637085 364.027283,778.359070 364.831848,778.081238 
z"/>
<path fill="#5A3BB3" opacity="1.000000" stroke="none" 
	d="
M404.930237,790.760864 
	C404.597839,790.611511 404.244843,790.131348 403.788879,789.367065 
	C404.093842,789.531921 404.501740,789.980957 404.930237,790.760864 
z"/>
<path fill="#5A3BB3" opacity="1.000000" stroke="none" 
	d="
M398.667236,783.074646 
	C398.176697,783.154968 397.655487,782.896606 396.982300,782.380310 
	C397.432434,782.326965 398.034485,782.531433 398.667236,783.074646 
z"/>
<path fill="#5A3BB3" opacity="1.000000" stroke="none" 
	d="
M402.940552,787.808594 
	C402.549194,787.708252 402.142914,787.272339 401.678406,786.540894 
	C402.055359,786.654541 402.490509,787.063782 402.940552,787.808594 
z"/>
<path fill="#4E2DAF" opacity="1.000000" stroke="none" 
	d="
M361.955322,779.140747 
	C361.995422,779.355408 361.761139,779.656677 361.243408,780.021240 
	C361.200317,779.798889 361.440613,779.513123 361.955322,779.140747 
z"/>
<path fill="#4E2DAF" opacity="1.000000" stroke="none" 
	d="
M360.201019,780.140747 
	C360.193207,780.381653 359.807129,780.732849 359.011169,781.165161 
	C359.008423,780.914490 359.415588,780.582764 360.201019,780.140747 
z"/>
<path fill="#5A3BB3" opacity="1.000000" stroke="none" 
	d="
M399.726990,784.036621 
	C399.434601,784.176086 399.109711,784.014709 398.718201,783.583313 
	C398.999237,783.454041 399.346893,783.594910 399.726990,784.036621 
z"/>
<path fill="#5A3BB3" opacity="1.000000" stroke="none" 
	d="
M400.731567,785.027588 
	C400.449860,785.148010 400.132812,784.968811 399.741119,784.516602 
	C400.009735,784.405029 400.352997,784.566528 400.731567,785.027588 
z"/>
<path fill="#5A3BB3" opacity="1.000000" stroke="none" 
	d="
M401.714996,786.033447 
	C401.428375,786.152771 401.117249,785.971069 400.734497,785.516479 
	C401.005432,785.406494 401.347961,785.569397 401.714996,786.033447 
z"/>
<path fill="#5A3BB3" opacity="1.000000" stroke="none" 
	d="
M209.850861,849.095642 
	C210.014175,849.004822 210.043793,849.484436 210.052200,849.724243 
	C209.936249,849.704895 209.811890,849.445679 209.850861,849.095642 
z"/>
<path fill="#FF9D3E" opacity="1.000000" stroke="none" 
	d="
M531.826416,261.171936 
	C566.935242,280.530579 601.721558,299.711426 636.531799,318.848846 
	C641.480469,321.569458 645.166443,325.029572 645.181274,331.172302 
	C645.196228,337.349518 641.426086,340.676727 636.483276,343.428223 
	C598.582764,364.526123 560.808777,385.853271 522.787903,406.731110 
	C514.693542,411.175873 506.372375,412.291473 497.119720,406.966736 
	C459.662231,385.410492 421.803741,364.550171 384.050903,343.509033 
	C379.230225,340.822327 375.509613,337.352020 375.458191,331.615082 
	C375.405731,325.768005 378.775452,321.809845 383.827240,319.007568 
	C422.345520,297.641327 460.843414,276.238159 499.311157,254.781097 
	C506.329102,250.866531 513.196838,250.841919 520.163208,254.710434 
	C523.941467,256.808563 527.728516,258.890869 531.826416,261.171936 
z"/>
<path fill="#FF9D3E" opacity="1.000000" stroke="none" 
	d="
M413.251434,432.058441 
	C413.161438,431.589020 413.071442,431.119568 413.332550,429.996887 
	C413.791473,427.540649 413.989075,425.737823 413.992706,423.934631 
	C414.019409,410.713623 414.010406,397.492554 414.004150,384.271484 
	C414.003113,382.106049 413.626099,379.703827 417.048737,379.981842 
	C417.048737,379.981842 417.010406,380.008789 417.054016,380.343842 
	C418.110382,381.092133 419.123169,381.505371 420.135956,381.918610 
	C420.135956,381.918610 420.035431,381.954803 420.169769,382.191833 
	C420.907867,382.601501 421.511597,382.774139 422.115356,382.946777 
	C422.115356,382.946777 422.026489,382.949219 422.078369,383.090332 
	C422.398102,383.212280 422.665924,383.193115 422.933746,383.173950 
	C446.019012,396.004547 469.068329,408.900543 492.214142,421.620972 
	C498.216217,424.919586 504.250000,429.138489 511.538910,427.821930 
	C516.412476,426.941650 521.392761,425.331604 525.716553,422.945160 
	C551.319824,408.813721 576.745117,394.359711 602.578735,380.405151 
	C602.947205,396.432678 602.940002,412.069336 603.025269,427.705475 
	C603.034790,429.449829 603.569336,431.191315 603.860352,432.934113 
	C602.495789,445.834595 595.238953,455.156647 585.428406,462.791077 
	C582.056335,465.415131 578.248657,467.479462 574.187317,469.682434 
	C573.505920,469.763763 573.277161,469.962128 573.048401,470.160461 
	C573.048401,470.160461 573.035461,470.064575 572.717163,470.046417 
	C571.273010,470.729919 570.147095,471.431580 569.021240,472.133240 
	C569.021240,472.133240 569.018066,472.039337 568.742920,472.062531 
	C567.982361,472.429108 567.497070,472.772491 567.011780,473.115906 
	C567.011780,473.115906 567.016418,473.030304 566.648499,473.034424 
	C559.190857,475.351593 552.101135,477.664673 545.011414,479.977722 
	C545.011414,479.977722 544.596863,480.071655 543.937134,480.043060 
	C541.474548,480.200684 539.659790,480.310089 537.870544,480.585205 
	C521.615906,483.084717 505.370728,484.170654 489.012115,481.273682 
	C483.781525,480.347382 478.399963,480.273346 473.087494,479.809357 
	C457.800232,476.116241 443.243408,470.764587 430.470367,461.269440 
	C424.188110,456.599396 419.378143,450.779266 416.353699,443.143372 
	C416.291321,442.120514 416.024414,441.604889 415.757477,441.089294 
	C415.757477,441.089294 415.837341,440.996033 415.903748,440.678528 
	C415.587921,439.583984 415.205688,438.806946 414.823456,438.029877 
	C414.823456,438.029877 414.902130,437.988708 414.939453,437.625427 
	C414.401703,435.527588 413.826569,433.792999 413.251434,432.058441 
z"/>
<path fill="#FE8513" opacity="1.000000" stroke="none" 
	d="
M473.469666,479.905823 
	C478.399963,480.273346 483.781525,480.347382 489.012115,481.273682 
	C505.370728,484.170654 521.615906,483.084717 537.870544,480.585205 
	C539.659790,480.310089 541.474548,480.200684 543.725220,480.026764 
	C537.731567,481.294922 531.340515,483.121582 524.838867,483.696045 
	C507.685547,485.211578 490.632660,484.194336 473.469666,479.905823 
z"/>
<path fill="#FE8513" opacity="1.000000" stroke="none" 
	d="
M416.778625,379.724731 
	C413.626099,379.703827 414.003113,382.106049 414.004150,384.271484 
	C414.010406,397.492554 414.019409,410.713623 413.992706,423.934631 
	C413.989075,425.737823 413.791473,427.540649 413.400208,429.641296 
	C413.116730,412.722504 413.116730,395.506012 413.116730,377.698456 
	C414.568481,378.455688 415.538513,378.961639 416.778625,379.724731 
z"/>
<path fill="#FE8513" opacity="1.000000" stroke="none" 
	d="
M603.922607,432.473572 
	C603.569336,431.191315 603.034790,429.449829 603.025269,427.705475 
	C602.940002,412.069336 602.947205,396.432678 602.919678,380.316467 
	C603.291870,380.674744 604.000549,381.511871 604.002747,382.350861 
	C604.045898,398.904816 604.007080,415.458923 603.922607,432.473572 
z"/>
<path fill="#FE8513" opacity="1.000000" stroke="none" 
	d="
M545.422974,480.039917 
	C552.101135,477.664673 559.190857,475.351593 566.690674,473.041992 
	C560.012085,475.397705 552.923279,477.749908 545.422974,480.039917 
z"/>
<path fill="#FE8513" opacity="1.000000" stroke="none" 
	d="
M413.233948,432.423950 
	C413.826569,433.792999 414.401703,435.527588 414.956909,437.666260 
	C414.363525,436.310059 413.790009,434.549744 413.233948,432.423950 
z"/>
<path fill="#FE8513" opacity="1.000000" stroke="none" 
	d="
M569.361633,472.091797 
	C570.147095,471.431580 571.273010,470.729919 572.765381,470.050842 
	C571.988586,470.732422 570.845337,471.391388 569.361633,472.091797 
z"/>
<path fill="#FE8513" opacity="1.000000" stroke="none" 
	d="
M419.981384,381.641663 
	C419.123169,381.505371 418.110382,381.092133 417.055695,380.320496 
	C417.951477,380.429626 418.889160,380.897156 419.981384,381.641663 
z"/>
<path fill="#FE8513" opacity="1.000000" stroke="none" 
	d="
M414.739868,438.385223 
	C415.205688,438.806946 415.587921,439.583984 415.952454,440.715973 
	C415.508545,440.294128 415.082397,439.517334 414.739868,438.385223 
z"/>
<path fill="#FE8513" opacity="1.000000" stroke="none" 
	d="
M567.319946,473.077209 
	C567.497070,472.772491 567.982361,472.429108 568.789612,472.067322 
	C568.617004,472.378784 568.122559,472.708679 567.319946,473.077209 
z"/>
<path fill="#FE8513" opacity="1.000000" stroke="none" 
	d="
M421.943146,382.686462 
	C421.511597,382.774139 420.907867,382.601501 420.160217,382.139282 
	C420.601166,382.041840 421.186066,382.233978 421.943146,382.686462 
z"/>
<path fill="#FE8513" opacity="1.000000" stroke="none" 
	d="
M415.703430,441.410248 
	C416.024414,441.604889 416.291321,442.120514 416.334290,442.792480 
	C415.956665,442.542938 415.803009,442.137085 415.703430,441.410248 
z"/>
<path fill="#FE8513" opacity="1.000000" stroke="none" 
	d="
M422.721741,383.063507 
	C422.665924,383.193115 422.398102,383.212280 422.085419,383.046448 
	C422.040558,382.861450 422.509766,382.953094 422.721741,383.063507 
z"/>
<path fill="#FE8513" opacity="1.000000" stroke="none" 
	d="
M573.280823,470.112488 
	C573.277161,469.962128 573.505920,469.763763 573.842041,469.721344 
	C573.949341,469.877258 573.513245,470.064484 573.280823,470.112488 
z"/>
</svg>